<?xml version="1.0" encoding="UTF-8"?>
<svg width="118px" height="43px" viewBox="0 0 118 43" version="1.1" xmlns="http://www.w3.org/2000/svg" xmlns:xlink="http://www.w3.org/1999/xlink">
    <title>Group</title>
    <g id="Page-1" stroke="none" stroke-width="1" fill="none" fill-rule="evenodd">
        <g id="1" transform="translate(-80.000000, -13.000000)">
            <g id="Group" transform="translate(80.000000, 13.000000)">
                <path d="M51.6894749,30.9214616 L54.8788368,30.9214616 L54.8788368,2.21814941 L45.3107509,2.21814941 L45.3107509,27.7324148 L42.1220193,27.7324148 L42.1220193,16.5698055 L38.9323421,16.5698055 L38.9323421,27.7324148 L35.7429802,27.7324148 L35.7429802,16.5698055 L32.553303,16.5698055 L32.553303,27.7324148 L29.3642562,27.7324148 L29.3642562,8.59655817 L19.7964855,8.59655817 L19.7964855,27.7324148 L0.660628788,27.7324148 L0.660628788,30.9214616 L22.9858474,30.9214616 L22.9858474,11.7859202 L26.1748942,11.7859202 L26.1748942,30.9214616 L48.5001129,30.9214616 L48.5001129,5.40751138 L51.6894749,5.40751138 L51.6894749,30.9214616 Z M0.660628788,16.5698055 L3.84967558,16.5698055 L3.84967558,21.3540061 L13.4174463,21.3540061 L13.4174463,18.1643289 L7.03903756,18.1643289 L7.03903756,8.59655817 L16.6068083,8.59655817 L16.6068083,24.5433681 L0.660628788,24.5433681 L0.660628788,16.5698055 Z M2.10102648,9.76337486 L0,11.8647165 L2.254837,14.1198687 L4.51030437,11.8647165 L2.4089627,9.76337486 L4.51030437,7.66234838 L2.254837,5.40751138 L0,7.66234838 L2.10102648,9.76337486 Z M35.0823514,7.66234838 L37.3375036,9.91750056 L39.5929709,7.66234838 L37.3375036,5.40751138 L35.0823514,7.66234838 Z M33.0011816,11.3610501 L35.2560186,13.6162023 L37.3375036,11.5350325 L39.4183582,13.6162023 L41.6735103,11.3610501 L39.4183582,9.10589793 L37.3375036,11.1867525 L35.2560186,9.10589793 L33.0011816,11.3610501 Z M10.2283995,14.9752821 L13.4174463,14.9752821 L13.4174463,11.7859202 L10.2283995,11.7859202 L10.2283995,14.9752821 Z" id="Fill-1481" fill="#2A2A29"></path>
                <path d="M26.3542978,42.0575954 L25.7415772,42.0575954 C25.663096,42.0575954 25.624013,42.0966784 25.624013,42.1754748 L25.624013,42.8821206 C25.624013,42.960917 25.663096,43 25.7415772,43 L26.3542978,43 C26.432779,43 26.4721772,42.960917 26.4721772,42.8821206 L26.4721772,42.1754748 C26.4721772,42.0969936 26.432779,42.0575954 26.3542978,42.0575954" id="Fill-1482" fill="#761D33"></path>
                <path d="M27.8624919,42.0575954 L27.2497713,42.0575954 C27.1712901,42.0575954 27.1318919,42.0966784 27.1318919,42.1754748 L27.1318919,42.8821206 C27.1318919,42.960917 27.1712901,43 27.2497713,43 L27.8624919,43 C27.9409731,43 27.9803713,42.960917 27.9803713,42.8821206 L27.9803713,42.1754748 C27.9803713,42.0969936 27.9409731,42.0575954 27.8624919,42.0575954" id="Fill-1483" fill="#761D33"></path>
                <path d="M36.03916,42.0575954 L35.4267546,42.0575954 C35.3482734,42.0575954 35.3088752,42.0966784 35.3088752,42.1754748 L35.3088752,42.8821206 C35.3088752,42.960917 35.3482734,43 35.4267546,43 L36.03916,43 C36.1176412,43 36.1570393,42.960917 36.1570393,42.8821206 L36.1570393,42.1754748 C36.1570393,42.0969936 36.1176412,42.0575954 36.03916,42.0575954" id="Fill-1484" fill="#761D33"></path>
                <path d="M37.5473856,42.0575954 L36.934665,42.0575954 C36.8561838,42.0575954 36.8171008,42.0966784 36.8171008,42.1754748 L36.8171008,42.8821206 C36.8171008,42.960917 36.8561838,43 36.934665,43 L37.5473856,43 C37.6258668,43 37.6652649,42.960917 37.6652649,42.8821206 L37.6652649,42.1754748 C37.6652649,42.0969936 37.6258668,42.0575954 37.5473856,42.0575954" id="Fill-1485" fill="#761D33"></path>
                <path d="M33.0427545,40.0369097 C32.8186577,40.3391726 32.4612373,40.4904616 31.9686024,40.4904616 C31.4756523,40.4904616 31.1201231,40.3391726 30.9001236,40.0369097 C30.6823304,39.7343316 30.5723307,39.2729001 30.5723307,38.6522998 C30.5723307,38.0632181 30.6804393,37.6017866 30.9001236,37.2680052 C31.1201231,36.9342237 31.4756523,36.7674906 31.9686024,36.7674906 C32.4612373,36.7674906 32.8186577,36.9361148 33.0427545,37.2739937 C33.2646451,37.6118725 33.376536,38.071413 33.376536,38.6522998 C33.376536,39.2729001 33.2665362,39.7343316 33.0427545,40.0369097 M37.0289054,36.319612 L36.604981,36.319612 C36.5264998,36.319612 36.4871016,36.3590102 36.4871016,36.4374914 L36.4871016,39.7835006 C36.4871016,40.0192593 36.4417149,40.1822102 36.3515718,40.2726684 C36.2611136,40.3628115 36.1177042,40.4081982 35.9213436,40.4081982 L35.0886236,40.4081982 L35.0728643,40.4081982 L34.8434093,40.4081982 C34.7176502,40.4081982 34.6057594,40.39433 34.5036393,40.3669089 C34.4015192,40.3391726 34.3170495,40.2862214 34.2461327,40.2077402 C34.1777375,40.129259 34.1228952,40.0230415 34.083497,39.8894029 C34.0440988,39.7560794 34.0245573,39.58714 34.0245573,39.383215 C34.0403166,39.296539 34.0497722,39.1729863 34.0560759,39.0119265 C34.0598581,38.8508667 34.0617492,38.7191192 34.0617492,38.6169991 C34.0617492,37.7767145 33.8830391,37.1482347 33.5297161,36.7321898 C33.176078,36.3155146 32.6557068,36.1074922 31.9704935,36.1074922 C30.5839925,36.1074922 29.8908996,36.9833927 29.8908996,38.7348784 C29.8908996,38.8448782 29.8927908,38.9529868 29.8968882,39.0588891 C29.9006704,39.1647914 29.9066589,39.2653356 29.9145386,39.3595761 C29.9145386,39.5635011 29.8908996,39.7324405 29.843937,39.8660792 C29.7966592,39.9997178 29.7377195,40.1078264 29.6671179,40.1900898 C29.5962012,40.2726684 29.51772,40.329717 29.4313592,40.3609204 C29.3449984,40.3924389 29.2586375,40.4081982 29.1722767,40.4081982 L28.5242554,40.4081982 L28.5229946,40.4081982 L28.5220491,40.4081982 L28.4517627,40.4081982 C28.1060042,40.4081982 27.8289562,40.3353903 27.6209337,40.1900898 C27.4129113,40.0447893 27.3089001,39.8228987 27.3089001,39.5244181 L27.3089001,36.4374914 C27.3089001,36.3590102 27.2695019,36.319612 27.1910207,36.319612 L26.7784429,36.319612 C26.6999617,36.319612 26.6605636,36.3590102 26.6605636,36.4374914 L26.6605636,39.4182006 C26.6605636,39.5833578 26.654575,39.7283431 26.6429132,39.8544173 C26.6309361,39.9798611 26.6057213,40.0838723 26.5663231,40.1664509 C26.5269249,40.2490295 26.464203,40.3098603 26.3778422,40.3489433 C26.2914813,40.3883415 26.173602,40.4081982 26.024204,40.4081982 L25.1410543,40.4081982 L25.1407391,40.4081982 L24.5516574,40.4081982 C24.3552969,40.4081982 24.2062141,40.3628115 24.104094,40.2726684 C24.0016588,40.1822102 23.9505987,40.0192593 23.9505987,39.7835006 L23.9505987,33.1740608 C23.9505987,33.0952644 23.9112005,33.0561814 23.8327193,33.0561814 L23.4207719,33.0561814 C23.3419755,33.0561814 23.3028925,33.0952644 23.3028925,33.1740608 L23.3028925,39.7835006 C23.3028925,40.2392588 23.4087948,40.5670517 23.6205995,40.7671945 C23.8327193,40.9676524 24.1863575,41.0678814 24.6811987,41.0678814 L25.1404239,41.0678814 L25.1407391,41.0678814 L26.0951208,41.0678814 C26.3936014,41.0678814 26.6214806,41.0108329 26.7784429,40.8970509 C26.9354053,40.7829537 27.0611643,40.6319799 27.1554048,40.443499 C27.2654045,40.7104611 27.4384413,40.8812916 27.6738849,40.9559906 C27.9096436,41.0303744 28.192365,41.0678814 28.5220491,41.0678814 L28.5229946,41.0678814 L28.5242554,41.0678814 L29.2192394,41.0678814 C29.4392388,41.0678814 29.643479,41.0363629 29.8338511,40.973641 C30.0245383,40.9106039 30.1912714,40.7498593 30.3346808,40.4904616 C30.5074025,40.7262204 30.7374879,40.8951598 31.0239915,40.9972799 C31.308604,41.0994 31.6269413,41.1501448 31.9704935,41.1501448 C32.3140457,41.1501448 32.6245034,41.0994 32.8993451,40.9972799 C33.1741869,40.8951598 33.402066,40.7224381 33.5826673,40.4784846 C33.7144148,40.7066789 33.8969072,40.8617501 34.1285686,40.9443287 C34.3583388,41.0265921 34.6117479,41.0678814 34.8865897,41.0678814 L35.0728643,41.0678814 L35.0867325,41.0678814 L35.7681635,41.0678814 C36.2633199,41.0678814 36.6166428,40.9481109 36.8287627,40.70857 C37.0408825,40.469029 37.1467848,40.0939583 37.1467848,39.5833578 L37.1467848,36.9912723 L37.8537459,36.9912723 L37.8537459,36.3312739 L37.0878451,36.3312739 C37.0720859,36.3237094 37.0525444,36.319612 37.0289054,36.319612" id="Fill-1486" fill="#761D33"></path>
                <path d="M42.719611,36.5846515 C42.5468893,36.4235917 42.3366606,36.3038212 42.0895552,36.22534 C41.8421346,36.1468588 41.5691839,36.1074607 41.2703881,36.1074607 L39.6919392,36.1074607 C39.613458,36.1074607 39.5740598,36.1468588 39.5740598,36.22534 L39.5740598,36.6495797 C39.5740598,36.7280609 39.613458,36.7674591 39.6919392,36.7674591 L41.0702453,36.7674591 C41.5887254,36.7674591 41.9656873,36.8755677 42.2011309,37.0911546 C42.4372048,37.3073718 42.5550842,37.6354799 42.5550842,38.0751637 L42.5550842,39.2180263 C42.5550842,39.4459054 42.5427919,39.6365926 42.5194682,39.7894576 C42.4958293,39.9426377 42.4469755,40.0642993 42.3719614,40.1547575 C42.2975776,40.2449006 42.1875779,40.3098288 42.0422774,40.3489118 C41.8969769,40.38831 41.7062896,40.4081667 41.4708461,40.4081667 L39.1145193,40.4081667 C39.035723,40.4081667 38.9963248,40.4472497 38.9963248,40.526046 L38.9963248,40.9502857 C38.9963248,41.0287669 39.035723,41.0678499 39.1145193,41.0678499 L41.6120492,41.0678499 C41.9262891,41.0678499 42.1875779,41.0363314 42.3959155,40.9736094 C42.6039379,40.9108875 42.7728773,40.8027789 42.9024186,40.6495988 C43.0319598,40.4964186 43.1243092,40.2902873 43.1791514,40.0312048 C43.2343089,39.7718072 43.26173,39.4459054 43.26173,39.0531843 L43.26173,38.1104645 C43.26173,37.7571415 43.2144522,37.4548786 43.1202117,37.2033606 C43.0262865,36.9518426 42.8926478,36.7460265 42.719611,36.5846515" id="Fill-1487" fill="#761D33"></path>
                <path d="M51.2382553,36.7967083 C51.0655337,36.6356485 50.8553049,36.515878 50.6078843,36.4373968 C50.3604637,36.3589156 50.0875131,36.3195175 49.7890324,36.3195175 L48.4343652,36.3195175 L50.6961363,33.6451686 C50.7434141,33.5900111 50.7276548,33.5348537 50.6491736,33.4803266 L50.3075126,33.2089519 C50.2602347,33.1698689 50.2091747,33.1815307 50.1543324,33.2442526 L47.538608,36.3195175 C47.5149691,36.3195175 47.5033072,36.3551334 47.5033072,36.425735 L47.5033072,36.8616365 C47.5033072,36.9401177 47.5423902,36.9795159 47.6211866,36.9795159 L49.5888896,36.9795159 C50.1070546,36.9795159 50.4840164,37.0876245 50.7197752,37.3032114 C50.9555339,37.5194286 51.0734133,37.8475367 51.0734133,38.2872205 L51.0734133,39.2182784 C51.0734133,39.4458423 51.0614362,39.6365296 51.0377973,39.7893945 C51.0144736,39.9425747 50.9653047,40.0642363 50.8906057,40.1546945 C50.8159068,40.2448376 50.7062222,40.3097658 50.5609217,40.349164 C50.4156212,40.3885621 50.224934,40.4081036 49.9894904,40.4081036 L46.6674353,40.4081036 L46.666805,40.4081036 L46.0777233,40.4081036 C45.8813627,40.4081036 45.7319648,40.3627169 45.6298447,40.2725739 C45.5280398,40.1821156 45.4769797,40.0194799 45.4769797,39.7837212 L45.4769797,33.1739663 C45.4769797,33.0951699 45.4375815,33.0560869 45.3591004,33.0560869 L44.9465226,33.0560869 C44.8680414,33.0560869 44.8286432,33.0951699 44.8286432,33.1739663 L44.8286432,39.7837212 C44.8286432,40.2391642 44.9348607,40.5669571 45.1469805,40.7674151 C45.3591004,40.9675579 45.7124233,41.0677869 46.2072645,41.0677869 L46.6658594,41.0677869 C46.6661746,41.0677869 46.6664898,41.0681021 46.666805,41.0681021 L50.1306935,41.0681021 C50.4449334,41.0681021 50.7062222,41.0362683 50.9142446,40.9735464 C51.1225822,40.9108245 51.2912065,40.8027159 51.4207477,40.6498509 C51.5502889,40.4963556 51.6426383,40.2902243 51.6977958,40.0311418 C51.7529532,39.7717441 51.7803744,39.4458423 51.7803744,39.0531212 L51.7803744,38.3228364 C51.7803744,37.9691983 51.7330965,37.6669354 51.6388561,37.4154174 C51.5446156,37.1638994 51.4112921,36.9580833 51.2382553,36.7967083" id="Fill-1488" fill="#761D33"></path>
                <path d="M54.8083929,34.9409907 L53.5709746,34.9409907 C53.484929,34.8703891 53.4042415,34.7701601 53.3298577,34.6406189 C53.2548436,34.5110777 53.2176517,34.3714505 53.2176517,34.2223678 C53.2176517,34.0181276 53.2747003,33.8450907 53.3884822,33.7038876 C53.5022642,33.5626845 53.6614329,33.4917678 53.8656731,33.4917678 C53.9993117,33.4917678 54.118767,33.5157219 54.2249845,33.5626845 C54.3308869,33.6096472 54.419454,33.6726843 54.4900555,33.7511655 C54.5373334,33.7981281 54.5805138,33.8022255 54.6195968,33.7628273 L54.7964158,33.6096472 C54.835814,33.570249 54.8433785,33.5273838 54.8200547,33.4801059 C54.7336939,33.3464673 54.6057286,33.2424561 54.4371044,33.1677571 C54.2681649,33.0933733 54.093237,33.0561814 53.9126357,33.0561814 C53.6850718,33.0561814 53.4965909,33.0952644 53.3471929,33.1740608 C53.1981102,33.252542 53.0802308,33.3483584 52.99387,33.4624555 C52.9075092,33.5762375 52.8463632,33.6963232 52.8110624,33.821767 C52.7760768,33.947526 52.7581113,34.061308 52.7581113,34.1634281 C52.7581113,34.3440294 52.7795439,34.4934273 52.8230395,34.6113067 C52.8662199,34.7288708 52.919171,34.8391858 52.981893,34.9409907 L52.5343296,34.9409907 C52.4873669,34.9409907 52.463728,34.968727 52.463728,35.0235693 L52.463728,35.3062907 C52.463728,35.3614481 52.4873669,35.3888693 52.5343296,35.3888693 L54.8083929,35.3888693 C54.8553555,35.3888693 54.8789944,35.3614481 54.8789944,35.3062907 L54.8789944,35.0235693 C54.8789944,34.968727 54.8553555,34.9409907 54.8083929,34.9409907" id="Fill-1489" fill="#761D33"></path>
                <path d="M53.8776186,35.9779825 L53.4650408,35.9779825 C53.3865596,35.9779825 53.3471614,36.0170655 53.3471614,36.0958618 L53.3471614,40.9500336 C53.3471614,41.0285148 53.3865596,41.0675978 53.4650408,41.0675978 L53.8776186,41.0675978 C53.9560998,41.0675978 53.9951828,41.0285148 53.9951828,40.9500336 L53.9951828,36.0958618 C53.9951828,36.0173806 53.9560998,35.9779825 53.8776186,35.9779825" id="Fill-1490" fill="#761D33"></path>
                <polygon id="Fill-1491" fill="#717371" points="59.0114229 41.8159742 59.6950602 41.8159742 59.6950602 0 59.0114229 0"></polygon>
                <path d="M69.1265763,17.7144647 L67.8901036,14.4069081 L66.6104505,17.7144647 L69.1265763,17.7144647 Z M67.3590161,13.0077997 L68.4215064,13.0077997 L71.4580034,20.7077813 L70.1783503,20.7077813 L69.3651717,18.6146344 L66.3936029,18.6146344 L65.5908255,20.7077813 L64.3004561,20.7077813 L67.3590161,13.0077997 Z" id="Fill-1492" fill="#2A2A29"></path>
                <polygon id="Fill-1493" fill="#2A2A29" points="72.412322 20.7077813 72.412322 13.0077997 73.6270469 13.0077997 73.6270469 19.6342595 77.7588135 19.6342595 77.7588135 20.7077813"></polygon>
                <path d="M85.686422,14.8189816 C85.6142445,14.7395549 85.5092877,14.65477 85.3718668,14.5639966 C85.234446,14.4738535 85.0737014,14.3890686 84.8893179,14.3093267 C84.7049343,14.2299 84.5022701,14.1646566 84.2819554,14.1142269 C84.0613256,14.0637972 83.8353376,14.037952 83.6043066,14.037952 C83.0908694,14.037952 82.712962,14.1321925 82.4708996,14.320043 C82.2285219,14.5082087 82.1078059,14.768552 82.1078059,15.1010727 C82.1078059,15.2889232 82.1456282,15.4427337 82.2215879,15.5618738 C82.2972324,15.681014 82.4147966,15.7859707 82.5739652,15.8761138 C82.7328187,15.9668872 82.932016,16.0466291 83.1706114,16.1150244 C83.4088916,16.1837348 83.6872004,16.2578034 84.0055377,16.3372301 C84.3957374,16.4311554 84.7481148,16.5361122 85.0626699,16.6517853 C85.3775402,16.7677735 85.6429264,16.9086614 85.8600892,17.0747642 C86.0766216,17.2411821 86.2446155,17.4454223 86.3640708,17.6874848 C86.4835261,17.9298624 86.5430961,18.2242457 86.5430961,18.5712649 C86.5430961,18.9617797 86.4687123,19.2980826 86.3208903,19.5798585 C86.172438,19.8619495 85.9697737,20.0917197 85.7135279,20.2685388 C85.4566517,20.4459882 85.1584863,20.5761598 84.8187163,20.6587384 C84.4789463,20.7419474 84.1139615,20.783867 83.7234467,20.783867 C83.1378321,20.783867 82.5720741,20.6952999 82.0261729,20.5178505 C81.4802716,20.3410314 80.9870063,20.0825793 80.5457466,19.7424942 L81.0988971,18.7014365 C81.1928224,18.7953618 81.3283522,18.9003186 81.5054864,19.0159916 C81.6829359,19.1319799 81.888752,19.2381974 82.1238804,19.3359049 C82.3586935,19.4336124 82.6136786,19.5165062 82.8885204,19.5852166 C83.1630469,19.6542423 83.448605,19.6882823 83.7451945,19.6882823 C84.2220702,19.6882823 84.5908372,19.6053885 84.8514956,19.4389706 C85.1115236,19.2728678 85.2416952,19.0270231 85.2416952,18.7014365 C85.2416952,18.5063367 85.1931567,18.343701 85.0954492,18.2135294 C84.9977417,18.0830426 84.8584297,17.9692606 84.6778284,17.8718683 C84.4972271,17.7741608 84.2762821,17.6859089 84.016254,17.6061669 C83.7559108,17.5267402 83.4596365,17.4435312 83.1271158,17.3568552 C82.743535,17.2553655 82.4094384,17.149148 82.1238804,17.0366268 C81.8380071,16.9247359 81.6013028,16.7892061 81.4134523,16.6300375 C81.2256017,16.471184 81.0828227,16.2849094 80.9851152,16.071844 C80.8874077,15.8584634 80.8385539,15.6000113 80.8385539,15.2961725 C80.8385539,14.9201562 80.9110466,14.5860596 81.0557167,14.2929371 C81.2003869,14.0001297 81.3973778,13.7546002 81.6466895,13.555403 C81.8963164,13.3568362 82.1903845,13.2068079 82.5304696,13.1053181 C82.8702396,13.0041436 83.2390066,12.9537139 83.6367707,12.9537139 C84.157142,12.9537139 84.638115,13.0369229 85.0790595,13.2030256 C85.520004,13.3694436 85.9067366,13.5755749 86.2395725,13.8214196 L85.686422,14.8189816 Z" id="Fill-1494" fill="#2A2A29"></path>
                <polygon id="Fill-1495" fill="#2A2A29" points="94.0803789 13.0078943 94.0803789 20.7078758 92.8549377 20.7078758 92.8549377 17.3133281 88.9724828 17.3133281 88.9724828 20.7078758 87.757758 20.7078758 87.757758 13.0078943 88.9724828 13.0078943 88.9724828 16.2287748 92.8549377 16.2287748 92.8549377 13.0078943"></polygon>
                <path d="M99.8497547,17.7144647 L98.6132821,14.4069081 L97.333629,17.7144647 L99.8497547,17.7144647 Z M98.0821945,13.0077997 L99.1446848,13.0077997 L102.181182,20.7077813 L100.901529,20.7077813 L100.08835,18.6146344 L97.1167814,18.6146344 L96.3140039,20.7077813 L95.0236345,20.7077813 L98.0821945,13.0077997 Z" id="Fill-1496" fill="#2A2A29"></path>
                <path d="M104.350383,16.955435 L106.475994,16.955435 C106.649346,16.955435 106.806623,16.9176127 106.947511,16.841653 C107.088714,16.7656933 107.20943,16.6607365 107.311235,16.5270979 C107.412095,16.3934592 107.491837,16.2396487 107.549516,16.0662967 C107.60751,15.8926295 107.636507,15.708246 107.636507,15.5131462 C107.636507,15.3180463 107.601836,15.1336628 107.533441,14.9599956 C107.464416,14.7863284 107.374273,14.6347242 107.262066,14.5045526 C107.150176,14.374381 107.020004,14.2713153 106.871867,14.1953556 C106.723414,14.1193959 106.569919,14.0815737 106.41075,14.0815737 L104.350383,14.0815737 L104.350383,16.955435 Z M103.135658,20.7077182 L103.135658,13.0080519 L106.48671,13.0080519 C106.833729,13.0080519 107.153958,13.0802294 107.44645,13.2248995 C107.739257,13.3695696 107.99046,13.5593113 108.200374,13.7941245 C108.409972,14.0292529 108.574184,14.2965302 108.693639,14.5969019 C108.813094,14.8969585 108.872664,15.2023733 108.872664,15.5131462 C108.872664,15.7734894 108.836418,16.0228011 108.764241,16.2613965 C108.691748,16.4999919 108.590573,16.7206218 108.460402,16.9226557 C108.330545,17.1253199 108.171377,17.3008783 107.983211,17.4487003 C107.79536,17.5971526 107.589229,17.7074676 107.365132,17.779645 L109.176503,20.7077182 L107.798827,20.7077182 L106.128975,18.0289568 L104.350383,18.0289568 L104.350383,20.7077182 L103.135658,20.7077182 Z" id="Fill-1497" fill="#2A2A29"></path>
                <path d="M113.51418,19.6668182 C113.752776,19.6668182 113.976873,19.6340389 114.186471,19.5687955 C114.396069,19.5038673 114.587702,19.4137242 114.761369,19.2980511 L113.665785,18.0291143 L114.837014,18.0291143 L115.390164,18.6689409 C115.57833,18.4158469 115.719218,18.13218 115.813143,17.8176249 C115.907069,17.5030698 115.954031,17.1831565 115.954031,16.8578851 C115.954031,16.489118 115.896352,16.1367407 115.780679,15.8004377 C115.665006,15.4641348 115.500479,15.1662845 115.287414,14.9059413 C115.073718,14.6452829 114.817157,14.4375757 114.517416,14.2821892 C114.217044,14.1268028 113.882947,14.048952 113.51418,14.048952 C113.123666,14.048952 112.776646,14.130585 112.472808,14.2929055 C112.169284,14.4558564 111.912723,14.669237 111.703125,14.9327321 C111.493211,15.1968575 111.332466,15.4969141 111.220576,15.8329018 C111.10837,16.1692048 111.052267,16.5108658 111.052267,16.8578851 C111.052267,17.2194028 111.110261,17.5702043 111.225934,17.9099742 C111.341292,18.2497442 111.506134,18.5494856 111.719514,18.8098288 C111.932264,19.070172 112.191032,19.2781944 112.494871,19.4335809 C112.798394,19.5889673 113.138164,19.6668182 113.51418,19.6668182 L113.51418,19.6668182 Z M115.50962,20.144009 C115.220279,20.3391088 114.907615,20.490713 114.571313,20.599452 C114.235325,20.7078758 113.879165,20.7620877 113.503464,20.7620877 C112.953781,20.7620877 112.452951,20.6498817 112.00129,20.4257848 C111.549629,20.2016879 111.16069,19.9091958 110.835419,19.5473629 C110.510148,19.1861603 110.258945,18.7701154 110.081495,18.3001739 C109.904676,17.8302323 109.816109,17.3495744 109.816109,16.8578851 C109.816109,16.3444479 109.909719,15.8527585 110.097885,15.382817 C110.286051,14.9131906 110.544188,14.4974609 110.873241,14.135628 C111.202295,13.7744254 111.592494,13.4869762 112.044786,13.2735957 C112.496446,13.0605303 112.990027,12.9536824 113.524897,12.9536824 C114.074265,12.9536824 114.575095,13.0677795 115.027071,13.2953435 C115.478732,13.5232226 115.865779,13.821388 116.187269,14.1901551 C116.509073,14.5586069 116.758385,14.9762277 116.935519,15.4427022 C117.112653,15.9088616 117.20122,16.3844765 117.20122,16.8686014 C117.20122,17.3820385 117.110762,17.8683697 116.930476,18.3272798 C116.749559,18.7865051 116.496466,19.1968766 116.171194,19.5580792 L117.179788,20.7078758 L116.008558,20.7078758 L115.50962,20.144009 Z" id="Fill-1498" fill="#2A2A29"></path>
                <path d="M68.2247045,27.4467307 L67.0355097,24.5277979 L65.8292948,27.4467307 L68.2247045,27.4467307 Z M66.7943928,23.8457365 L67.2851366,23.8457365 L69.7382253,29.7504215 L69.1229832,29.7504215 L68.3577128,27.9040649 L65.7047965,27.9040649 L64.9480362,29.7504215 L64.3242841,29.7504215 L66.7943928,23.8457365 Z" id="Fill-1499" fill="#761D33"></path>
                <path d="M69.9794682,26.7566321 C69.9794682,26.4017332 70.0415598,26.0484103 70.1666884,25.6963481 C70.2911867,25.3442859 70.4727335,25.0297308 70.7110138,24.7523676 C70.9496092,24.4753195 71.243362,24.2493315 71.5925876,24.0744036 C71.9421283,23.900106 72.3383164,23.8124844 72.7820976,23.8124844 C73.3087726,23.8124844 73.7588574,23.9319397 74.1332978,24.17022 C74.507423,24.4088154 74.7832103,24.7189579 74.9609749,25.1015931 L74.5036408,25.3843145 C74.4090851,25.1901602 74.2937272,25.0268941 74.1581975,24.8935707 C74.0223525,24.7605624 73.8767368,24.6524538 73.7216656,24.56956 C73.5662791,24.486351 73.4055345,24.4264658 73.2394318,24.3905346 C73.0726986,24.3546035 72.9094325,24.3363227 72.7486879,24.3363227 C72.3937891,24.3363227 72.0804947,24.4088154 71.80912,24.5528551 C71.5371149,24.6968949 71.3086054,24.8853758 71.1229612,25.1182979 C70.9370018,25.3509048 70.7970594,25.6131391 70.7028189,25.9040553 C70.6085785,26.1952867 70.5616158,26.4903003 70.5616158,26.7897266 C70.5616158,27.1172043 70.618034,27.4301835 70.7321312,27.7296097 C70.845598,28.0287207 71.0006692,28.2937917 71.1976602,28.5235619 C71.3943359,28.7536474 71.6275732,28.9367701 71.8961112,29.0726151 C72.1652796,29.20846 72.4574566,29.2762249 72.7735876,29.2762249 C72.9400055,29.2762249 73.1105209,29.2554227 73.2848185,29.2138182 C73.4597464,29.1722137 73.6286858,29.1057095 73.7925823,29.0143058 C73.9558484,28.922902 74.1071374,28.8094352 74.2455038,28.6732751 C74.3841855,28.5374301 74.5004889,28.3725881 74.5950446,28.178749 L75.0772784,28.4280607 C74.9827227,28.6499513 74.8497144,28.8453663 74.6779383,29.0143058 C74.5058471,29.1835604 74.3148447,29.3260242 74.1043007,29.4423277 C73.8934416,29.5592615 73.6702903,29.6478286 73.4348468,29.7086594 C73.199088,29.7698054 72.9674267,29.8000632 72.7404931,29.8000632 C72.335795,29.8000632 71.9641913,29.7114961 71.6259972,29.5343618 C71.287488,29.3565972 70.996887,29.125251 70.7526182,28.839693 C70.5089799,28.5541349 70.318923,28.2298091 70.1830781,27.8664002 C70.0472331,27.5036217 69.9794682,27.1335939 69.9794682,26.7566321" id="Fill-1500" fill="#761D33"></path>
                <path d="M79.2519102,27.4467307 L78.0627153,24.5277979 L76.8565004,27.4467307 L79.2519102,27.4467307 Z M77.8215984,23.8457365 L78.3123422,23.8457365 L80.7654309,29.7504215 L80.1501888,29.7504215 L79.3849184,27.9040649 L76.7320022,27.9040649 L75.9752418,29.7504215 L75.3514897,29.7504215 L77.8215984,23.8457365 Z" id="Fill-1501" fill="#761D33"></path>
                <path d="M85.8631149,26.7898842 C85.8631149,26.4349853 85.8133156,26.1093987 85.7130866,25.812494 C85.613488,25.5162196 85.4678723,25.2596586 85.2768699,25.0434414 C85.0855523,24.8269089 84.8510543,24.6595454 84.5740063,24.5400901 C84.2966431,24.42095 83.9783057,24.36138 83.6177335,24.36138 L82.1956166,24.36138 L82.1956166,29.234778 L83.6177335,29.234778 C83.9836639,29.234778 84.306729,29.1723713 84.5866137,29.0475578 C84.8664984,28.9230596 85.1006812,28.7512835 85.2894773,28.5319144 C85.4776431,28.3131756 85.6204221,28.0553539 85.7174992,27.7584492 C85.8145764,27.4621748 85.8631149,27.1387945 85.8631149,26.7898842 L85.8631149,26.7898842 Z M81.6137842,29.7504215 L81.6137842,23.8457365 L83.6177335,23.8457365 C84.0889358,23.8457365 84.5005681,23.9235873 84.8526303,24.0786586 C85.2046925,24.234045 85.4984453,24.4449041 85.7342041,24.7106055 C85.9696476,24.9769372 86.1470971,25.2886557 86.2662372,25.6463912 C86.3853773,26.0038115 86.4452625,26.385186 86.4452625,26.7898842 C86.4452625,27.2390235 86.3787584,27.6449824 86.2457501,28.0080761 C86.1124267,28.3714849 85.9223698,28.6816275 85.6758948,28.9394492 C85.4291045,29.1972709 85.132515,29.3967833 84.7861261,29.5383016 C84.4394221,29.6795047 84.050168,29.7504215 83.6177335,29.7504215 L81.6137842,29.7504215 Z" id="Fill-1502" fill="#761D33"></path>
                <polygon id="Fill-1503" fill="#761D33" points="91.5262733 29.234715 91.5262733 29.7503584 87.5596639 29.7503584 87.5596639 23.8456735 91.4515743 23.8456735 91.4515743 24.3613169 88.1418115 24.3613169 88.1418115 26.4903949 91.0273346 26.4903949 91.0273346 26.9811387 88.1418115 26.9811387 88.1418115 29.234715"></polygon>
                <polygon id="Fill-1504" fill="#761D33" points="97.8549143 29.7502954 97.8549143 24.9021122 95.7009366 28.6528195 95.3602211 28.6528195 93.2062435 24.9021122 93.2062435 29.7502954 92.6240959 29.7502954 92.6240959 23.8459256 93.2229483 23.8459256 95.5263239 27.8875491 97.8467194 23.8459256 98.4370619 23.8459256 98.4370619 29.7502954"></polygon>
                <polygon id="Fill-1505" fill="#761D33" points="99.9171414 29.7500432 100.499289 29.7500432 100.499289 23.8456735 99.9171414 23.8456735"></polygon>
                <path d="M105.239301,27.4467307 L104.050106,24.5277979 L102.843891,27.4467307 L105.239301,27.4467307 Z M103.808989,23.8457365 L104.299733,23.8457365 L106.752821,29.7504215 L106.137579,29.7504215 L105.372309,27.9040649 L102.719393,27.9040649 L101.962632,29.7504215 L101.33888,29.7504215 L103.808989,23.8457365 Z" id="Fill-1506" fill="#761D33"></path>
            </g>
        </g>
    </g>
</svg>