<svg xmlns="http://www.w3.org/2000/svg" width="194.216" height="59.572" viewBox="0 0 194.216 59.572">
  <g id="Group_156" data-name="Group 156" transform="translate(-1096.785 -2818.329)">
    <path id="Path_56" data-name="Path 56" d="M342.6,279.995a.832.832,0,0,0,.915-.835.919.919,0,0,0-1.83,0,.838.838,0,0,0,.915.835" transform="translate(757.021 2572.229)" fill="#158285"/>
    <path id="Path_57" data-name="Path 57" d="M347.057,279.995a.832.832,0,0,0,.915-.835.919.919,0,0,0-1.83,0,.838.838,0,0,0,.915.835" transform="translate(754.997 2572.229)" fill="#158285"/>
    <path id="Path_58" data-name="Path 58" d="M350.983,297.967a.853.853,0,0,0-.915.835.919.919,0,0,0,1.83,0,.853.853,0,0,0-.915-.835" transform="translate(753.212 2563.303)" fill="#158285"/>
    <path id="Path_59" data-name="Path 59" d="M355.436,297.967a.853.853,0,0,0-.915.835.919.919,0,1,0,.915-.835" transform="translate(751.189 2563.303)" fill="#158285"/>
    <path id="Path_60" data-name="Path 60" d="M353.706,286.912a1.7,1.7,0,0,1,1.783-1.852,4.268,4.268,0,0,1,1.784.48l.48-1.349a6.2,6.2,0,0,0-2.367-.583,2.843,2.843,0,0,0-3.065,3.053,6.537,6.537,0,0,0,.457,2.173h-3.121v-5.14h-1.452v5.14h-3.929v-5.14H341.9c-2.253,0-3.739,1.363-3.739,3.308v.011a3.259,3.259,0,0,0,3.545,3.284h16.276v-1.464h-3.614a3.54,3.54,0,0,1-.663-1.921m-10.882,1.921h-1.231a1.866,1.866,0,0,1-2.047-1.821V287a1.866,1.866,0,0,1,2.047-1.855h1.231Z" transform="translate(758.623 2569.828)" fill="#158285"/>
    <path id="Path_61" data-name="Path 61" d="M397.554,280.54a.832.832,0,0,0,.915-.835.919.919,0,0,0-1.83,0,.838.838,0,0,0,.915.835" transform="translate(732.049 2571.981)" fill="#158285"/>
    <path id="Path_62" data-name="Path 62" d="M402.006,280.54a.832.832,0,0,0,.915-.835.919.919,0,0,0-1.83,0,.838.838,0,0,0,.915.835" transform="translate(730.025 2571.981)" fill="#158285"/>
    <path id="Path_63" data-name="Path 63" d="M397.77,281.392a5.165,5.165,0,0,0-2.412.675l.526,1.338a3.1,3.1,0,0,1,1.795-.549c1.765,0,2.1,2.049,3.093,3.825h-7.4v-5.14h-1.452v5.14h-3.931V284.9a3.192,3.192,0,0,0-3.225-3.511h-.011a3.193,3.193,0,0,0-3.236,3.5l-.008-.029c0,1.258-.606,1.818-1.761,1.818h-1.01V278.87h-1.452v9.274h2.462a2.47,2.47,0,0,0,2.4-1.069,2.962,2.962,0,0,0,2.607,1.069H402.68v-1.464c-1.348-.61-1.375-5.289-4.911-5.289m-11.239,5.289h-1.784a1.638,1.638,0,0,1-1.784-1.8v-.011a1.8,1.8,0,0,1,1.784-2.013h.011a1.8,1.8,0,0,1,1.772,2.013Z" transform="translate(740.847 2571.981)" fill="#158285"/>
    <path id="Path_64" data-name="Path 64" d="M415.758,297.967a.846.846,0,1,0,0,1.681.84.84,0,0,0,.914-.847.852.852,0,0,0-.914-.835" transform="translate(723.786 2563.303)" fill="#158285"/>
    <path id="Path_65" data-name="Path 65" d="M432.332,286.681h-5.158v1.464h6.61V278.87h-1.452Z" transform="translate(718.172 2571.981)" fill="#158285"/>
    <rect id="Rectangle_28" data-name="Rectangle 28" width="1.464" height="6.123" transform="translate(1146.891 2851.762)" fill="#158285"/>
    <rect id="Rectangle_29" data-name="Rectangle 29" width="1.452" height="9.274" transform="translate(1153.854 2850.852)" fill="#158285"/>
    <path id="Path_66" data-name="Path 66" d="M454.891,279.161a.918.918,0,0,0,1.829,0,.918.918,0,0,0-1.829,0" transform="translate(705.576 2572.229)" fill="#158285"/>
    <path id="Path_67" data-name="Path 67" d="M459.344,279.161a.919.919,0,0,0,1.83,0,.919.919,0,0,0-1.83,0" transform="translate(703.553 2572.229)" fill="#158285"/>
    <path id="Path_68" data-name="Path 68" d="M464.184,297.967a.853.853,0,0,0-.915.835.918.918,0,0,0,1.829,0,.853.853,0,0,0-.914-.835" transform="translate(701.769 2563.303)" fill="#158285"/>
    <path id="Path_69" data-name="Path 69" d="M468.636,297.967a.853.853,0,0,0-.914.835.918.918,0,1,0,.914-.835" transform="translate(699.745 2563.303)" fill="#158285"/>
    <path id="Path_70" data-name="Path 70" d="M492.471,280.552a.84.84,0,0,0,.915-.846.93.93,0,1,0-.915.846" transform="translate(688.925 2571.981)" fill="#158285"/>
    <path id="Path_71" data-name="Path 71" d="M501.437,278.871a.853.853,0,0,0-.915.835.919.919,0,0,0,1.83,0,.853.853,0,0,0-.915-.835" transform="translate(684.839 2571.981)" fill="#158285"/>
    <path id="Path_72" data-name="Path 72" d="M505.235,279.706a.919.919,0,0,0,1.83,0,.919.919,0,0,0-1.83,0" transform="translate(682.698 2571.981)" fill="#158285"/>
    <path id="Path_73" data-name="Path 73" d="M487.1,286.681h-3.047v-5.14H482.6v5.14h-4.406v-5.14H476.74v5.14h-4.16V284.9a3.192,3.192,0,0,0-3.225-3.511h-.011a3.193,3.193,0,0,0-3.236,3.5l-.009-.029c0,1.258-.606,1.818-1.76,1.818H462.86v-5.14h-1.453v5.14h-3.929v-5.14H455.1c-2.252,0-3.739,1.363-3.739,3.308v.011a3.259,3.259,0,0,0,3.545,3.284h9.43a2.47,2.47,0,0,0,2.4-1.069,2.962,2.962,0,0,0,2.607,1.069h19.208V278.87H487.1Zm-31.074,0h-1.231a1.866,1.866,0,0,1-2.047-1.821v-.011a1.865,1.865,0,0,1,2.047-1.855h1.231Zm15.1,0h-1.784a1.638,1.638,0,0,1-1.784-1.8v-.011a1.8,1.8,0,0,1,1.784-2.013h.011a1.8,1.8,0,0,1,1.773,2.013Z" transform="translate(707.18 2571.981)" fill="#158285"/>
    <rect id="Rectangle_30" data-name="Rectangle 30" width="1.452" height="9.274" transform="translate(1197.617 2850.852)" fill="#158285"/>
    <path id="Path_74" data-name="Path 74" d="M531.653,283.767c-2.253,0-3.739,1.363-3.739,3.307v.012a3.259,3.259,0,0,0,3.545,3.284h1.106c-.035.8-.6,1.052-1.4,1.052a6.4,6.4,0,0,1-1.921-.309l.3,1.544a6.029,6.029,0,0,0,1.681.229c1.864,0,2.8-.686,2.8-2.893v-6.226Zm.923,3.271h-.011v1.869h-1.22a1.866,1.866,0,0,1-2.047-1.82v-.012a1.866,1.866,0,0,1,2.047-1.855h1.231Z" transform="translate(672.392 2569.756)" fill="#158285"/>
    <path id="Path_75" data-name="Path 75" d="M473.361,259.97c0-2.093-.961-3.168-3.1-3.168h-1.017v1.452h1.223c1.007,0,1.522.514,1.522,1.578v2.109h-4.038v1.464h5.41Z" transform="translate(699.641 2582.01)" fill="#158285"/>
    <path id="Path_76" data-name="Path 76" d="M481.676,263.141V256.8h-1.464v6.581c0,.9-.423,1.224-1.04,1.224-.3,0-.549-.022-.926-.057l-.135,1.269a4.023,4.023,0,0,0,.926.1c1.555,0,2.64-.618,2.64-2.779" transform="translate(695.024 2582.01)" fill="#158285"/>
    <rect id="Rectangle_31" data-name="Rectangle 31" width="1.452" height="9.274" transform="translate(1178.392 2836.141)" fill="#158285"/>
    <path id="Path_77" data-name="Path 77" d="M496.222,261.18h1.106c-.035.8-.595,1.052-1.4,1.052a6.42,6.42,0,0,1-1.921-.309l.3,1.543a4.188,4.188,0,0,0,1.4.229c1.75,0,2.972-.606,3.075-2.516h3.112v0a2.385,2.385,0,0,0,2.256-1.064,2.964,2.964,0,0,0,2.607,1.069h7.715v-9.274h-1.452v7.81h-3.026v-1.778a3.192,3.192,0,0,0-3.225-3.511h-.012a3.192,3.192,0,0,0-3.236,3.5l-.008-.029c0,1.259-.607,1.818-1.762,1.818h-2.959v-5.14h-2.375c-2.253,0-3.739,1.363-3.739,3.308v.011a3.258,3.258,0,0,0,3.544,3.284m8.75-3.277a1.8,1.8,0,0,1,1.783-2.012h.012a1.8,1.8,0,0,1,1.772,2.012v1.813h-1.784a1.637,1.637,0,0,1-1.783-1.8Zm-10.911-.019a1.865,1.865,0,0,1,2.046-1.855h1.232v1.818h-.011v1.869h-1.22a1.865,1.865,0,0,1-2.046-1.82Z" transform="translate(688.405 2584.235)" fill="#158285"/>
    <rect id="Rectangle_32" data-name="Rectangle 32" width="1.453" height="9.274" transform="translate(1204.761 2836.141)" fill="#158285"/>
    <path id="Path_78" data-name="Path 78" d="M392.167,253.03a.832.832,0,0,0,.915-.835.919.919,0,1,0-.915.835" transform="translate(734.497 2584.483)" fill="#158285"/>
    <path id="Path_79" data-name="Path 79" d="M387.713,253.03a.832.832,0,0,0,.915-.835.919.919,0,0,0-1.83,0,.838.838,0,0,0,.915.835" transform="translate(736.521 2584.483)" fill="#158285"/>
    <path id="Path_80" data-name="Path 80" d="M386.816,263.4h7.951v-6.6h-1.452v5.14h-3.93V256.8h-2.375c-2.253,0-3.739,1.363-3.739,3.308v.011a3.258,3.258,0,0,0,3.544,3.284m-2.161-3.3a1.866,1.866,0,0,1,2.047-1.855h1.231v3.687H386.7a1.866,1.866,0,0,1-2.047-1.82Z" transform="translate(738.123 2582.01)" fill="#158285"/>
    <path id="Path_81" data-name="Path 81" d="M427.4,251.75a.773.773,0,1,0-.851-.776.776.776,0,0,0,.851.776" transform="translate(718.454 2585.005)" fill="#158285"/>
    <path id="Path_82" data-name="Path 82" d="M425.207,255.049a.809.809,0,1,0-.881-.812.813.813,0,0,0,.881.812" transform="translate(719.466 2583.539)" fill="#158285"/>
    <path id="Path_83" data-name="Path 83" d="M428.673,254.237a.884.884,0,1,0,.88-.8.8.8,0,0,0-.88.8" transform="translate(717.491 2583.54)" fill="#158285"/>
    <path id="Path_84" data-name="Path 84" d="M433.083,251.906H431.63v7.811h-2.847v-5.14h-1.452v5.14H423.4v-5.14h-1.463v5.14h-3.053V255.5h-1.464v4.22h-2.652V255.5h-1.452v4.22h-3.748v-5.282H408.1v6.723c0,.9-.423,1.224-1.04,1.224-.3,0-.549-.023-.926-.057l-.136,1.27a4.062,4.062,0,0,0,.926.1,2.3,2.3,0,0,0,2.64-2.516h23.516Z" transform="translate(727.794 2584.235)" fill="#158285"/>
    <rect id="Rectangle_33" data-name="Rectangle 33" width="1.452" height="9.274" transform="translate(1162.763 2836.141)" fill="#158285"/>
    <path id="Path_85" data-name="Path 85" d="M396.822,271.837a.919.919,0,0,0-1.83,0,.919.919,0,0,0,1.83,0" transform="translate(732.797 2575.557)" fill="#158285"/>
    <path id="Path_86" data-name="Path 86" d="M401.274,271.837a.919.919,0,0,0-1.83,0,.919.919,0,0,0,1.83,0" transform="translate(730.774 2575.557)" fill="#158285"/>
    <path id="Path_87" data-name="Path 87" d="M440.7,271.023a.853.853,0,0,0-.915.835.919.919,0,0,0,1.83,0,.846.846,0,0,0-.915-.835" transform="translate(712.441 2575.547)" fill="#158285"/>
    <path id="Path_88" data-name="Path 88" d="M601.9,234.655c.3.045.609.1.913.15a48.129,48.129,0,0,1,4.849-7.272,52.265,52.265,0,0,0-15.383-8.274Zm24.83,19.535L610.9,249.044l18.612,29.786a51.5,51.5,0,0,0-2.774-24.64" transform="translate(643.139 2599.072)" fill="#158285"/>
    <path id="Path_89" data-name="Path 89" d="M600.413,242.714c6.861-10.981,15.806-19,28.741-23.457l-18.613,29.786-18.612,29.786c-1.662-13.581,1.621-25.134,8.483-36.115" transform="translate(643.493 2599.072)" fill="#f7941d"/>
    <path id="Path_90" data-name="Path 90" d="M558.641,249.3l19.8,6.433a69.9,69.9,0,0,1,6.464-3.146q.429-1.052.908-2.1c.536-1.173,1.113-2.307,1.718-3.415a59.987,59.987,0,0,0-28.887,2.226m54.134,6.433-17.169,5.578,36.966,12.011a59.725,59.725,0,0,0-19.8-17.589" transform="translate(658.428 2586.809)" fill="#2bb574"/>
    <path id="Path_91" data-name="Path 91" d="M558.641,273.311l21.127-6.865a58.227,58.227,0,0,1,2.65-6.055,50.16,50.16,0,0,1,2.486-7.818,60.832,60.832,0,0,0-26.263,20.738m45.957-26.4L595.607,261.3l36.966-12.011a59.9,59.9,0,0,0-27.975-2.378" transform="translate(658.428 2586.815)" fill="#fcb614"/>
  </g>
</svg>
