<svg width="17" height="17" viewBox="0 0 17 17" fill="none" xmlns="http://www.w3.org/2000/svg">
<path fill-rule="evenodd" clip-rule="evenodd" d="M3.18685 6.72917C2.79727 6.72917 2.47852 6.41042 2.47852 6.02083V4.60417H1.06185C0.672266 4.60417 0.353516 4.28542 0.353516 3.89583C0.353516 3.50625 0.672266 3.1875 1.06185 3.1875H2.47852V1.77083C2.47852 1.38125 2.79727 1.0625 3.18685 1.0625C3.57643 1.0625 3.89518 1.38125 3.89518 1.77083V3.1875H5.31185C5.70143 3.1875 6.02018 3.50625 6.02018 3.89583C6.02018 4.28542 5.70143 4.60417 5.31185 4.60417H3.89518V6.02083C3.89518 6.41042 3.57643 6.72917 3.18685 6.72917ZM7.72155 9.20833C8.10114 8.55086 8.80266 8.14583 9.56185 8.14583C10.321 8.14583 11.0226 8.55086 11.4022 9.20833C11.7817 9.86581 11.7817 10.6759 11.4022 11.3333C11.0226 11.9908 10.321 12.3958 9.56185 12.3958C8.80266 12.3958 8.10114 11.9908 7.72155 11.3333C7.34195 10.6759 7.34195 9.86581 7.72155 9.20833ZM15.2285 4.60417H12.9831L12.1048 3.64792C11.8427 3.3575 11.4602 3.1875 11.0635 3.1875H6.53018C6.6506 3.4 6.72852 3.63375 6.72852 3.89583C6.72852 4.675 6.09102 5.3125 5.31185 5.3125H4.60352V6.02083C4.60352 6.8 3.96602 7.4375 3.18685 7.4375C2.92477 7.4375 2.69102 7.35958 2.47852 7.23917V14.5208C2.47852 15.3 3.11602 15.9375 3.89518 15.9375H15.2285C16.0077 15.9375 16.6452 15.3 16.6452 14.5208V6.02083C16.6452 5.24167 16.0077 4.60417 15.2285 4.60417ZM6.02018 10.2708C6.02018 12.2258 7.60685 13.8125 9.56185 13.8125C11.5168 13.8125 13.1035 12.2258 13.1035 10.2708C13.1035 8.31583 11.5168 6.72917 9.56185 6.72917C7.60685 6.72917 6.02018 8.31583 6.02018 10.2708Z" fill="black"/>
</svg>
