<svg width="18" height="22" viewBox="0 0 18 22" fill="none" xmlns="http://www.w3.org/2000/svg">
<path fill-rule="evenodd" clip-rule="evenodd" d="M8.53324 16.501C7.55346 17.4257 6.00946 17.4085 5.05059 16.4497C4.07428 15.4733 4.07428 13.8904 5.05059 12.9141L12.8288 5.13595C13.024 4.94069 13.3406 4.94069 13.5359 5.13595C13.7311 5.33121 13.7311 5.64779 13.5359 5.84306L5.7577 13.6212C5.17191 14.207 5.17191 15.1568 5.7577 15.7425C6.34349 16.3283 7.29323 16.3283 7.87902 15.7425L15.6572 7.96438C17.024 6.59754 17.024 4.38146 15.6572 3.01463C14.2904 1.64779 12.0743 1.64779 10.7074 3.01463L2.92927 10.7928C0.781389 12.9407 0.781389 16.4231 2.92927 18.571C5.07716 20.7189 8.55956 20.7189 10.7074 18.571L17.0714 12.207C17.2667 12.0118 17.5833 12.0118 17.7785 12.207C17.9738 12.4023 17.9738 12.7189 17.7785 12.9141L11.4146 19.2781C8.87615 21.8165 4.76057 21.8165 2.22217 19.2781C-0.298841 16.7571 -0.316123 12.6805 2.17032 10.1381L10.0003 2.30752C11.7577 0.550162 14.6069 0.550162 16.3643 2.30752C18.1217 4.06488 18.1217 6.91412 16.3643 8.67148L8.53399 16.5018L8.53324 16.501Z" fill="#92929D"/>
</svg>
