<svg width="20" height="19" viewBox="0 0 20 19" fill="none" xmlns="http://www.w3.org/2000/svg">
<path fill-rule="evenodd" clip-rule="evenodd" d="M5.87811 14.179L0 10.3522L4.05466 7.10107L9.98063 10.76L5.87811 14.179ZM9.98063 10.76L15.9067 7.10107L19.9613 10.3519L14.0953 14.1787L9.98063 10.76ZM10.0047 11.5036L14.1192 14.9106L15.8827 13.759V15.0543L10.0047 18.5694V18.5813L9.99273 18.5694L9.98063 18.5813V18.5694L4.11462 15.0543V13.759L5.87811 14.9106L9.98063 11.5036V11.4795L9.99273 11.4916L10.0047 11.4795V11.5036ZM0 3.86208L5.87811 0.0354004L9.98063 3.45431L4.05466 7.10107L0 3.86208ZM14.0953 0.0354004L19.9613 3.86208L15.9067 7.10107L9.98063 3.45431L14.0953 0.0354004Z" fill="#92929D"/>
</svg>
