<svg width="22" height="20" viewBox="0 0 22 20" fill="none" xmlns="http://www.w3.org/2000/svg">
<path fill-rule="evenodd" clip-rule="evenodd" d="M14.3525 0.5L14.4619 0.500004C14.643 0.500004 14.8099 0.597884 14.8983 0.755896L14.9528 0.853312L14.9535 0.854691L21.4358 12.3573C21.5227 12.5119 21.5213 12.7009 21.432 12.8541C21.3428 13.0073 21.1791 13.1018 21.0018 13.1024L15.2167 13.1277L15.2145 13.1277H15.104C14.9245 13.1277 14.7588 13.0316 14.6698 12.8758L14.6119 12.7744L8.29316 1.56137L8.12971 1.26981C8.04323 1.11554 8.04467 0.927072 8.13351 0.774152C8.22234 0.621231 8.38535 0.526613 8.56219 0.525319L8.89145 0.522909L8.89301 0.5229L14.3525 0.5ZM20.1466 12.1059L14.1698 1.50078L9.41809 1.52071L15.3949 12.1269L20.1466 12.1059Z" fill="#92929D"/>
<path fill-rule="evenodd" clip-rule="evenodd" d="M7.48406 13.5153C7.57179 13.3551 7.73994 13.2554 7.92262 13.2554H21C21.1775 13.2554 21.3416 13.3495 21.4314 13.5026C21.5211 13.6557 21.523 13.8449 21.4363 13.9997L21.272 14.293L18.5623 19.1488L18.507 19.2464C18.4183 19.4031 18.2521 19.5 18.072 19.5H4.99459C4.81697 19.5 4.65269 19.4058 4.563 19.2525C4.47332 19.0991 4.47171 18.9098 4.55877 18.7549L4.72265 18.4635L4.7234 18.4622L7.43096 13.6123L7.48406 13.5153ZM8.21719 14.2554H20.1478L17.7792 18.5H5.84755L8.21719 14.2554Z" fill="#92929D"/>
<path fill-rule="evenodd" clip-rule="evenodd" d="M7.97467 1.36381C7.88599 1.20676 7.71962 1.10964 7.53928 1.10964C7.35893 1.10964 7.19256 1.20676 7.10389 1.36381L0.622303 12.8652L0.620846 12.8678L0.565859 12.964C0.477578 13.1185 0.478081 13.3083 0.56718 13.4624L0.621834 13.5569L0.623624 13.56L3.36961 18.3876L3.53424 18.6779C3.62297 18.8344 3.78896 18.9312 3.96887 18.9313C4.14879 18.9314 4.31489 18.8349 4.40383 18.6785L4.56963 18.3869L4.5706 18.3852L10.8888 7.17196L10.9391 7.08318C10.9485 7.06722 10.957 7.05078 10.9645 7.03394C10.9942 6.96822 11.0084 6.89885 11.0086 6.83022C11.0088 6.76161 10.9949 6.69216 10.9656 6.62629C10.9581 6.60943 10.9497 6.59295 10.9404 6.57694L10.8896 6.48601L10.8877 6.48274L8.13929 1.65537L8.13842 1.65382L7.97467 1.36381ZM9.93418 6.82909L3.96816 17.4173L1.57542 13.2108L7.54067 2.62506L9.93418 6.82909Z" fill="#92929D"/>
</svg>
