<svg width="22" height="22" viewBox="0 0 22 22" fill="none" xmlns="http://www.w3.org/2000/svg">
<path fill-rule="evenodd" clip-rule="evenodd" d="M11.5 6.5V16C11.5 16.2761 11.2761 16.5 11 16.5C10.7239 16.5 10.5 16.2761 10.5 16V6.5H6C5.72386 6.5 5.5 6.27614 5.5 6C5.5 5.72386 5.72386 5.5 6 5.5H16C16.2761 5.5 16.5 5.72386 16.5 6C16.5 6.27614 16.2761 6.5 16 6.5H11.5ZM4 0.5H18C19.933 0.5 21.5 2.067 21.5 4V18C21.5 19.933 19.933 21.5 18 21.5H4C2.067 21.5 0.5 19.933 0.5 18V4C0.5 2.067 2.067 0.5 4 0.5ZM4 1.5C2.61929 1.5 1.5 2.61929 1.5 4V18C1.5 19.3807 2.61929 20.5 4 20.5H18C19.3807 20.5 20.5 19.3807 20.5 18V4C20.5 2.61929 19.3807 1.5 18 1.5H4Z" fill="#92929D"/>
</svg>
