<svg width="1238" height="173" viewBox="0 0 1238 173" fill="none" xmlns="http://www.w3.org/2000/svg">
<rect y="2" width="1238" height="171" fill="#FFE9F0"/>
<mask id="mask0" style="mask-type:alpha" maskUnits="userSpaceOnUse" x="0" y="0" width="1238" height="171">
<rect width="1238" height="171" fill="#EFEBF5"/>
</mask>
<g mask="url(#mask0)">
<ellipse cx="1200.28" cy="46" rx="107.358" ry="111" fill="#9B3B5A" fill-opacity="0.03"/>
<ellipse cx="1158.69" cy="46" rx="107.358" ry="111" fill="#9B3B5A" fill-opacity="0.03"/>
<path d="M997.88 11.4357L999.518 11.4357L999.518 13.6617L1001.77 13.6618L1001.77 15.3418L999.518 15.3417L999.518 17.5678L997.88 17.5678L997.88 15.3417L995.542 15.3417L995.542 13.6617L997.88 13.6617L997.88 11.4357Z" fill="#9B3B5A" fill-opacity="0.3"/>
<path d="M997.88 30.4357L999.518 30.4357L999.518 32.6617L1001.77 32.6618L1001.77 34.3418L999.518 34.3417L999.518 36.5678L997.88 36.5678L997.88 34.3417L995.542 34.3417L995.542 32.6617L997.88 32.6617L997.88 30.4357Z" fill="#9B3B5A" fill-opacity="0.3"/>
<path d="M997.88 49.4357L999.518 49.4357L999.518 51.6617L1001.77 51.6618L1001.77 53.3418L999.518 53.3417L999.518 55.5678L997.88 55.5678L997.88 53.3417L995.542 53.3417L995.542 51.6617L997.88 51.6617L997.88 49.4357Z" fill="#9B3B5A" fill-opacity="0.3"/>
<path d="M997.88 68.4357L999.518 68.4357L999.518 70.6617L1001.77 70.6618L1001.77 72.3418L999.518 72.3417L999.518 74.5678L997.88 74.5678L997.88 72.3417L995.542 72.3417L995.542 70.6617L997.88 70.6617L997.88 68.4357Z" fill="#9B3B5A" fill-opacity="0.3"/>
<path d="M997.88 87.4357L999.518 87.4357L999.518 89.6617L1001.77 89.6618L1001.77 91.3418L999.518 91.3417L999.518 93.5678L997.88 93.5678L997.88 91.3417L995.542 91.3417L995.542 89.6617L997.88 89.6617L997.88 87.4357Z" fill="#9B3B5A" fill-opacity="0.3"/>
<path d="M997.88 106.436L999.518 106.436L999.518 108.662L1001.77 108.662L1001.77 110.342L999.518 110.342L999.518 112.568L997.88 112.568L997.88 110.342L995.542 110.342L995.542 108.662L997.88 108.662L997.88 106.436Z" fill="#9B3B5A" fill-opacity="0.3"/>
<path d="M997.88 125.436L999.518 125.436L999.518 127.662L1001.77 127.662L1001.77 129.342L999.518 129.342L999.518 131.568L997.88 131.568L997.88 129.342L995.542 129.342L995.542 127.662L997.88 127.662L997.88 125.436Z" fill="#9B3B5A" fill-opacity="0.3"/>
<path d="M979.503 11.4357L981.141 11.4357L981.141 13.6617L983.395 13.6618L983.395 15.3418L981.141 15.3417L981.141 17.5678L979.503 17.5678L979.503 15.3417L977.165 15.3417L977.165 13.6617L979.503 13.6617L979.503 11.4357Z" fill="#9B3B5A" fill-opacity="0.3"/>
<path d="M979.503 30.4357L981.141 30.4357L981.141 32.6617L983.395 32.6618L983.395 34.3418L981.141 34.3417L981.141 36.5678L979.503 36.5678L979.503 34.3417L977.165 34.3417L977.165 32.6617L979.503 32.6617L979.503 30.4357Z" fill="#9B3B5A" fill-opacity="0.3"/>
<path d="M979.503 49.4357L981.141 49.4357L981.141 51.6617L983.395 51.6618L983.395 53.3418L981.141 53.3417L981.141 55.5678L979.503 55.5678L979.503 53.3417L977.165 53.3417L977.165 51.6617L979.503 51.6617L979.503 49.4357Z" fill="#9B3B5A" fill-opacity="0.3"/>
<path d="M979.503 68.4357L981.141 68.4357L981.141 70.6617L983.395 70.6618L983.395 72.3418L981.141 72.3417L981.141 74.5678L979.503 74.5678L979.503 72.3417L977.165 72.3417L977.165 70.6617L979.503 70.6617L979.503 68.4357Z" fill="#9B3B5A" fill-opacity="0.3"/>
<path d="M979.503 87.4357L981.141 87.4357L981.141 89.6617L983.395 89.6618L983.395 91.3418L981.141 91.3417L981.141 93.5678L979.503 93.5678L979.503 91.3417L977.165 91.3417L977.165 89.6617L979.503 89.6617L979.503 87.4357Z" fill="#9B3B5A" fill-opacity="0.3"/>
<path d="M979.503 106.436L981.141 106.436L981.141 108.662L983.395 108.662L983.395 110.342L981.141 110.342L981.141 112.568L979.503 112.568L979.503 110.342L977.165 110.342L977.165 108.662L979.503 108.662L979.503 106.436Z" fill="#9B3B5A" fill-opacity="0.3"/>
<path d="M979.503 125.436L981.141 125.436L981.141 127.662L983.395 127.662L983.395 129.342L981.141 129.342L981.141 131.568L979.503 131.568L979.503 129.342L977.165 129.342L977.165 127.662L979.503 127.662L979.503 125.436Z" fill="#9B3B5A" fill-opacity="0.3"/>
<path d="M961.128 11.4357L962.766 11.4357L962.766 13.6617L965.02 13.6618L965.02 15.3418L962.766 15.3417L962.766 17.5678L961.128 17.5678L961.128 15.3417L958.79 15.3417L958.79 13.6617L961.128 13.6617L961.128 11.4357Z" fill="#9B3B5A" fill-opacity="0.3"/>
<path d="M961.128 30.4357L962.766 30.4357L962.766 32.6617L965.02 32.6618L965.02 34.3418L962.766 34.3417L962.766 36.5678L961.128 36.5678L961.128 34.3417L958.79 34.3417L958.79 32.6617L961.128 32.6617L961.128 30.4357Z" fill="#9B3B5A" fill-opacity="0.3"/>
<path d="M961.128 49.4357L962.766 49.4357L962.766 51.6617L965.02 51.6618L965.02 53.3418L962.766 53.3417L962.766 55.5678L961.128 55.5678L961.128 53.3417L958.79 53.3417L958.79 51.6617L961.128 51.6617L961.128 49.4357Z" fill="#9B3B5A" fill-opacity="0.3"/>
<path d="M961.128 68.4357L962.766 68.4357L962.766 70.6617L965.02 70.6618L965.02 72.3418L962.766 72.3417L962.766 74.5678L961.128 74.5678L961.128 72.3417L958.79 72.3417L958.79 70.6617L961.128 70.6617L961.128 68.4357Z" fill="#9B3B5A" fill-opacity="0.3"/>
<path d="M961.128 87.4357L962.766 87.4357L962.766 89.6617L965.02 89.6618L965.02 91.3418L962.766 91.3417L962.766 93.5678L961.128 93.5678L961.128 91.3417L958.79 91.3417L958.79 89.6617L961.128 89.6617L961.128 87.4357Z" fill="#9B3B5A" fill-opacity="0.3"/>
<path d="M961.128 106.436L962.766 106.436L962.766 108.662L965.02 108.662L965.02 110.342L962.766 110.342L962.766 112.568L961.128 112.568L961.128 110.342L958.79 110.342L958.79 108.662L961.128 108.662L961.128 106.436Z" fill="#9B3B5A" fill-opacity="0.3"/>
<path d="M961.128 125.436L962.766 125.436L962.766 127.662L965.02 127.662L965.02 129.342L962.766 129.342L962.766 131.568L961.128 131.568L961.128 129.342L958.79 129.342L958.79 127.662L961.128 127.662L961.128 125.436Z" fill="#9B3B5A" fill-opacity="0.3"/>
<path d="M942.751 11.4357L944.389 11.4357L944.389 13.6617L946.643 13.6618L946.643 15.3418L944.389 15.3417L944.389 17.5678L942.751 17.5678L942.751 15.3417L940.413 15.3417L940.413 13.6617L942.751 13.6617L942.751 11.4357Z" fill="#9B3B5A" fill-opacity="0.3"/>
<path d="M942.751 30.4357L944.389 30.4357L944.389 32.6617L946.643 32.6618L946.643 34.3418L944.389 34.3417L944.389 36.5678L942.751 36.5678L942.751 34.3417L940.413 34.3417L940.413 32.6617L942.751 32.6617L942.751 30.4357Z" fill="#9B3B5A" fill-opacity="0.3"/>
<path d="M942.751 49.4357L944.389 49.4357L944.389 51.6617L946.643 51.6618L946.643 53.3418L944.389 53.3417L944.389 55.5678L942.751 55.5678L942.751 53.3417L940.413 53.3417L940.413 51.6617L942.751 51.6617L942.751 49.4357Z" fill="#9B3B5A" fill-opacity="0.3"/>
<path d="M942.751 68.4357L944.389 68.4357L944.389 70.6617L946.643 70.6618L946.643 72.3418L944.389 72.3417L944.389 74.5678L942.751 74.5678L942.751 72.3417L940.413 72.3417L940.413 70.6617L942.751 70.6617L942.751 68.4357Z" fill="#9B3B5A" fill-opacity="0.3"/>
<path d="M942.751 87.4357L944.389 87.4357L944.389 89.6617L946.643 89.6618L946.643 91.3418L944.389 91.3417L944.389 93.5678L942.751 93.5678L942.751 91.3417L940.413 91.3417L940.413 89.6617L942.751 89.6617L942.751 87.4357Z" fill="#9B3B5A" fill-opacity="0.3"/>
<path d="M942.751 106.436L944.389 106.436L944.389 108.662L946.643 108.662L946.643 110.342L944.389 110.342L944.389 112.568L942.751 112.568L942.751 110.342L940.413 110.342L940.413 108.662L942.751 108.662L942.751 106.436Z" fill="#9B3B5A" fill-opacity="0.3"/>
<path d="M942.751 125.436L944.389 125.436L944.389 127.662L946.643 127.662L946.643 129.342L944.389 129.342L944.389 131.568L942.751 131.568L942.751 129.342L940.413 129.342L940.413 127.662L942.751 127.662L942.751 125.436Z" fill="#9B3B5A" fill-opacity="0.3"/>
<path d="M924.374 11.4357L926.012 11.4357L926.012 13.6617L928.266 13.6618L928.266 15.3418L926.012 15.3417L926.012 17.5678L924.374 17.5678L924.374 15.3417L922.036 15.3417L922.036 13.6617L924.374 13.6617L924.374 11.4357Z" fill="#9B3B5A" fill-opacity="0.3"/>
<path d="M924.374 30.4357L926.012 30.4357L926.012 32.6617L928.266 32.6618L928.266 34.3418L926.012 34.3417L926.012 36.5678L924.374 36.5678L924.374 34.3417L922.036 34.3417L922.036 32.6617L924.374 32.6617L924.374 30.4357Z" fill="#9B3B5A" fill-opacity="0.3"/>
<path d="M924.374 49.4357L926.012 49.4357L926.012 51.6617L928.266 51.6618L928.266 53.3418L926.012 53.3417L926.012 55.5678L924.374 55.5678L924.374 53.3417L922.036 53.3417L922.036 51.6617L924.374 51.6617L924.374 49.4357Z" fill="#9B3B5A" fill-opacity="0.3"/>
<path d="M924.374 68.4357L926.012 68.4357L926.012 70.6617L928.266 70.6618L928.266 72.3418L926.012 72.3417L926.012 74.5678L924.374 74.5678L924.374 72.3417L922.036 72.3417L922.036 70.6617L924.374 70.6617L924.374 68.4357Z" fill="#9B3B5A" fill-opacity="0.3"/>
<path d="M924.374 87.4357L926.012 87.4357L926.012 89.6617L928.266 89.6618L928.266 91.3418L926.012 91.3417L926.012 93.5678L924.374 93.5678L924.374 91.3417L922.036 91.3417L922.036 89.6617L924.374 89.6617L924.374 87.4357Z" fill="#9B3B5A" fill-opacity="0.3"/>
<path d="M924.374 106.436L926.012 106.436L926.012 108.662L928.266 108.662L928.266 110.342L926.012 110.342L926.012 112.568L924.374 112.568L924.374 110.342L922.036 110.342L922.036 108.662L924.374 108.662L924.374 106.436Z" fill="#9B3B5A" fill-opacity="0.3"/>
<path d="M924.374 125.436L926.012 125.436L926.012 127.662L928.266 127.662L928.266 129.342L926.012 129.342L926.012 131.568L924.374 131.568L924.374 129.342L922.036 129.342L922.036 127.662L924.374 127.662L924.374 125.436Z" fill="#9B3B5A" fill-opacity="0.3"/>
<path d="M905.997 11.4357L907.635 11.4357L907.635 13.6617L909.889 13.6618L909.889 15.3418L907.635 15.3417L907.635 17.5678L905.997 17.5678L905.997 15.3417L903.659 15.3417L903.659 13.6617L905.997 13.6617L905.997 11.4357Z" fill="#9B3B5A" fill-opacity="0.3"/>
<path d="M905.997 30.4357L907.635 30.4357L907.635 32.6617L909.889 32.6618L909.889 34.3418L907.635 34.3417L907.635 36.5678L905.997 36.5678L905.997 34.3417L903.659 34.3417L903.659 32.6617L905.997 32.6617L905.997 30.4357Z" fill="#9B3B5A" fill-opacity="0.3"/>
<path d="M905.997 49.4357L907.635 49.4357L907.635 51.6617L909.889 51.6618L909.889 53.3418L907.635 53.3417L907.635 55.5678L905.997 55.5678L905.997 53.3417L903.659 53.3417L903.659 51.6617L905.997 51.6617L905.997 49.4357Z" fill="#9B3B5A" fill-opacity="0.3"/>
<path d="M905.997 68.4357L907.635 68.4357L907.635 70.6617L909.889 70.6618L909.889 72.3418L907.635 72.3417L907.635 74.5678L905.997 74.5678L905.997 72.3417L903.659 72.3417L903.659 70.6617L905.997 70.6617L905.997 68.4357Z" fill="#9B3B5A" fill-opacity="0.3"/>
<path d="M905.997 87.4357L907.635 87.4357L907.635 89.6617L909.889 89.6618L909.889 91.3418L907.635 91.3417L907.635 93.5678L905.997 93.5678L905.997 91.3417L903.659 91.3417L903.659 89.6617L905.997 89.6617L905.997 87.4357Z" fill="#9B3B5A" fill-opacity="0.3"/>
<path d="M905.997 106.436L907.635 106.436L907.635 108.662L909.889 108.662L909.889 110.342L907.635 110.342L907.635 112.568L905.997 112.568L905.997 110.342L903.659 110.342L903.659 108.662L905.997 108.662L905.997 106.436Z" fill="#9B3B5A" fill-opacity="0.3"/>
<path d="M905.997 125.436L907.635 125.436L907.635 127.662L909.889 127.662L909.889 129.342L907.635 129.342L907.635 131.568L905.997 131.568L905.997 129.342L903.659 129.342L903.659 127.662L905.997 127.662L905.997 125.436Z" fill="#9B3B5A" fill-opacity="0.3"/>
<path d="M887.62 11.4357L889.258 11.4357L889.258 13.6617L891.512 13.6618L891.512 15.3418L889.258 15.3417L889.258 17.5678L887.62 17.5678L887.62 15.3417L885.282 15.3417L885.282 13.6617L887.62 13.6617L887.62 11.4357Z" fill="#9B3B5A" fill-opacity="0.3"/>
<path d="M887.62 30.4357L889.258 30.4357L889.258 32.6617L891.512 32.6618L891.512 34.3418L889.258 34.3417L889.258 36.5678L887.62 36.5678L887.62 34.3417L885.282 34.3417L885.282 32.6617L887.62 32.6617L887.62 30.4357Z" fill="#9B3B5A" fill-opacity="0.3"/>
<path d="M887.62 49.4357L889.258 49.4357L889.258 51.6617L891.512 51.6618L891.512 53.3418L889.258 53.3417L889.258 55.5678L887.62 55.5678L887.62 53.3417L885.282 53.3417L885.282 51.6617L887.62 51.6617L887.62 49.4357Z" fill="#9B3B5A" fill-opacity="0.3"/>
<path d="M887.62 68.4357L889.258 68.4357L889.258 70.6617L891.512 70.6618L891.512 72.3418L889.258 72.3417L889.258 74.5678L887.62 74.5678L887.62 72.3417L885.282 72.3417L885.282 70.6617L887.62 70.6617L887.62 68.4357Z" fill="#9B3B5A" fill-opacity="0.3"/>
<path d="M887.62 87.4357L889.258 87.4357L889.258 89.6617L891.512 89.6618L891.512 91.3418L889.258 91.3417L889.258 93.5678L887.62 93.5678L887.62 91.3417L885.282 91.3417L885.282 89.6617L887.62 89.6617L887.62 87.4357Z" fill="#9B3B5A" fill-opacity="0.3"/>
<path d="M887.62 106.436L889.258 106.436L889.258 108.662L891.512 108.662L891.512 110.342L889.258 110.342L889.258 112.568L887.62 112.568L887.62 110.342L885.282 110.342L885.282 108.662L887.62 108.662L887.62 106.436Z" fill="#9B3B5A" fill-opacity="0.3"/>
<path d="M887.62 125.436L889.258 125.436L889.258 127.662L891.512 127.662L891.512 129.342L889.258 129.342L889.258 131.568L887.62 131.568L887.62 129.342L885.282 129.342L885.282 127.662L887.62 127.662L887.62 125.436Z" fill="#9B3B5A" fill-opacity="0.3"/>
<path d="M869.245 11.4357L870.883 11.4357L870.883 13.6617L873.137 13.6618L873.137 15.3418L870.883 15.3417L870.883 17.5678L869.245 17.5678L869.245 15.3417L866.907 15.3417L866.907 13.6617L869.245 13.6617L869.245 11.4357Z" fill="#9B3B5A" fill-opacity="0.3"/>
<path d="M869.245 30.4357L870.883 30.4357L870.883 32.6617L873.137 32.6618L873.137 34.3418L870.883 34.3417L870.883 36.5678L869.245 36.5678L869.245 34.3417L866.907 34.3417L866.907 32.6617L869.245 32.6617L869.245 30.4357Z" fill="#9B3B5A" fill-opacity="0.3"/>
<path d="M869.245 49.4357L870.883 49.4357L870.883 51.6617L873.137 51.6618L873.137 53.3418L870.883 53.3417L870.883 55.5678L869.245 55.5678L869.245 53.3417L866.907 53.3417L866.907 51.6617L869.245 51.6617L869.245 49.4357Z" fill="#9B3B5A" fill-opacity="0.3"/>
<path d="M869.245 68.4357L870.883 68.4357L870.883 70.6617L873.137 70.6618L873.137 72.3418L870.883 72.3417L870.883 74.5678L869.245 74.5678L869.245 72.3417L866.907 72.3417L866.907 70.6617L869.245 70.6617L869.245 68.4357Z" fill="#9B3B5A" fill-opacity="0.3"/>
<path d="M869.245 87.4357L870.883 87.4357L870.883 89.6617L873.137 89.6618L873.137 91.3418L870.883 91.3417L870.883 93.5678L869.245 93.5678L869.245 91.3417L866.907 91.3417L866.907 89.6617L869.245 89.6617L869.245 87.4357Z" fill="#9B3B5A" fill-opacity="0.3"/>
<path d="M869.245 106.436L870.883 106.436L870.883 108.662L873.137 108.662L873.137 110.342L870.883 110.342L870.883 112.568L869.245 112.568L869.245 110.342L866.907 110.342L866.907 108.662L869.245 108.662L869.245 106.436Z" fill="#9B3B5A" fill-opacity="0.3"/>
<path d="M869.245 125.436L870.883 125.436L870.883 127.662L873.137 127.662L873.137 129.342L870.883 129.342L870.883 131.568L869.245 131.568L869.245 129.342L866.907 129.342L866.907 127.662L869.245 127.662L869.245 125.436Z" fill="#9B3B5A" fill-opacity="0.3"/>
<path d="M850.868 11.4357L852.506 11.4357L852.506 13.6617L854.76 13.6618L854.76 15.3418L852.506 15.3417L852.506 17.5678L850.868 17.5678L850.868 15.3417L848.53 15.3417L848.53 13.6617L850.868 13.6617L850.868 11.4357Z" fill="#9B3B5A" fill-opacity="0.3"/>
<path d="M850.868 30.4357L852.506 30.4357L852.506 32.6617L854.76 32.6618L854.76 34.3418L852.506 34.3417L852.506 36.5678L850.868 36.5678L850.868 34.3417L848.53 34.3417L848.53 32.6617L850.868 32.6617L850.868 30.4357Z" fill="#9B3B5A" fill-opacity="0.3"/>
<path d="M850.868 49.4357L852.506 49.4357L852.506 51.6617L854.76 51.6618L854.76 53.3418L852.506 53.3417L852.506 55.5678L850.868 55.5678L850.868 53.3417L848.53 53.3417L848.53 51.6617L850.868 51.6617L850.868 49.4357Z" fill="#9B3B5A" fill-opacity="0.3"/>
<path d="M850.868 68.4357L852.506 68.4357L852.506 70.6617L854.76 70.6618L854.76 72.3418L852.506 72.3417L852.506 74.5678L850.868 74.5678L850.868 72.3417L848.53 72.3417L848.53 70.6617L850.868 70.6617L850.868 68.4357Z" fill="#9B3B5A" fill-opacity="0.3"/>
<path d="M850.868 87.4357L852.506 87.4357L852.506 89.6617L854.76 89.6618L854.76 91.3418L852.506 91.3417L852.506 93.5678L850.868 93.5678L850.868 91.3417L848.53 91.3417L848.53 89.6617L850.868 89.6617L850.868 87.4357Z" fill="#9B3B5A" fill-opacity="0.3"/>
<path d="M850.868 106.436L852.506 106.436L852.506 108.662L854.76 108.662L854.76 110.342L852.506 110.342L852.506 112.568L850.868 112.568L850.868 110.342L848.53 110.342L848.53 108.662L850.868 108.662L850.868 106.436Z" fill="#9B3B5A" fill-opacity="0.3"/>
<path d="M850.868 125.436L852.506 125.436L852.506 127.662L854.76 127.662L854.76 129.342L852.506 129.342L852.506 131.568L850.868 131.568L850.868 129.342L848.53 129.342L848.53 127.662L850.868 127.662L850.868 125.436Z" fill="#9B3B5A" fill-opacity="0.3"/>
<path d="M832.491 11.4357L834.129 11.4357L834.129 13.6617L836.383 13.6618L836.383 15.3418L834.129 15.3417L834.129 17.5678L832.491 17.5678L832.491 15.3417L830.153 15.3417L830.153 13.6617L832.491 13.6617L832.491 11.4357Z" fill="#9B3B5A" fill-opacity="0.3"/>
<path d="M832.491 30.4357L834.129 30.4357L834.129 32.6617L836.383 32.6618L836.383 34.3418L834.129 34.3417L834.129 36.5678L832.491 36.5678L832.491 34.3417L830.153 34.3417L830.153 32.6617L832.491 32.6617L832.491 30.4357Z" fill="#9B3B5A" fill-opacity="0.3"/>
<path d="M832.491 49.4357L834.129 49.4357L834.129 51.6617L836.383 51.6618L836.383 53.3418L834.129 53.3417L834.129 55.5678L832.491 55.5678L832.491 53.3417L830.153 53.3417L830.153 51.6617L832.491 51.6617L832.491 49.4357Z" fill="#9B3B5A" fill-opacity="0.3"/>
<path d="M832.491 68.4357L834.129 68.4357L834.129 70.6617L836.383 70.6618L836.383 72.3418L834.129 72.3417L834.129 74.5678L832.491 74.5678L832.491 72.3417L830.153 72.3417L830.153 70.6617L832.491 70.6617L832.491 68.4357Z" fill="#9B3B5A" fill-opacity="0.3"/>
<path d="M832.491 87.4357L834.129 87.4357L834.129 89.6617L836.383 89.6618L836.383 91.3418L834.129 91.3417L834.129 93.5678L832.491 93.5678L832.491 91.3417L830.153 91.3417L830.153 89.6617L832.491 89.6617L832.491 87.4357Z" fill="#9B3B5A" fill-opacity="0.3"/>
<path d="M832.491 106.436L834.129 106.436L834.129 108.662L836.383 108.662L836.383 110.342L834.129 110.342L834.129 112.568L832.491 112.568L832.491 110.342L830.153 110.342L830.153 108.662L832.491 108.662L832.491 106.436Z" fill="#9B3B5A" fill-opacity="0.3"/>
<path d="M832.491 125.436L834.129 125.436L834.129 127.662L836.383 127.662L836.383 129.342L834.129 129.342L834.129 131.568L832.491 131.568L832.491 129.342L830.153 129.342L830.153 127.662L832.491 127.662L832.491 125.436Z" fill="#9B3B5A" fill-opacity="0.3"/>
<path d="M1071.39 68.4357L1073.02 68.4357L1073.02 70.6617L1075.28 70.6618L1075.28 72.3418L1073.02 72.3417L1073.02 74.5678L1071.39 74.5678L1071.39 72.3417L1069.05 72.3417L1069.05 70.6617L1071.39 70.6617L1071.39 68.4357Z" fill="#9B3B5A" fill-opacity="0.3"/>
<path d="M1071.39 87.4357L1073.02 87.4357L1073.02 89.6617L1075.28 89.6618L1075.28 91.3418L1073.02 91.3417L1073.02 93.5678L1071.39 93.5678L1071.39 91.3417L1069.05 91.3417L1069.05 89.6617L1071.39 89.6617L1071.39 87.4357Z" fill="#9B3B5A" fill-opacity="0.3"/>
<path d="M1071.39 106.436L1073.02 106.436L1073.02 108.662L1075.28 108.662L1075.28 110.342L1073.02 110.342L1073.02 112.568L1071.39 112.568L1071.39 110.342L1069.05 110.342L1069.05 108.662L1071.39 108.662L1071.39 106.436Z" fill="#9B3B5A" fill-opacity="0.3"/>
<path d="M1071.39 125.436L1073.02 125.436L1073.02 127.662L1075.28 127.662L1075.28 129.342L1073.02 129.342L1073.02 131.568L1071.39 131.568L1071.39 129.342L1069.05 129.342L1069.05 127.662L1071.39 127.662L1071.39 125.436Z" fill="#9B3B5A" fill-opacity="0.3"/>
<path d="M1071.39 144.436L1073.02 144.436L1073.02 146.662L1075.28 146.662L1075.28 148.342L1073.02 148.342L1073.02 150.568L1071.39 150.568L1071.39 148.342L1069.05 148.342L1069.05 146.662L1071.39 146.662L1071.39 144.436Z" fill="#9B3B5A" fill-opacity="0.3"/>
<path d="M1071.39 163.436L1073.02 163.436L1073.02 165.662L1075.28 165.662L1075.28 167.342L1073.02 167.342L1073.02 169.568L1071.39 169.568L1071.39 167.342L1069.05 167.342L1069.05 165.662L1071.39 165.662L1071.39 163.436Z" fill="#9B3B5A" fill-opacity="0.3"/>
<path d="M1053.01 68.4357L1054.65 68.4357L1054.65 70.6617L1056.9 70.6618L1056.9 72.3418L1054.65 72.3417L1054.65 74.5678L1053.01 74.5678L1053.01 72.3417L1050.67 72.3417L1050.67 70.6617L1053.01 70.6617L1053.01 68.4357Z" fill="#9B3B5A" fill-opacity="0.3"/>
<path d="M1053.01 87.4357L1054.65 87.4357L1054.65 89.6617L1056.9 89.6618L1056.9 91.3418L1054.65 91.3417L1054.65 93.5678L1053.01 93.5678L1053.01 91.3417L1050.67 91.3417L1050.67 89.6617L1053.01 89.6617L1053.01 87.4357Z" fill="#9B3B5A" fill-opacity="0.3"/>
<path d="M1053.01 106.436L1054.65 106.436L1054.65 108.662L1056.9 108.662L1056.9 110.342L1054.65 110.342L1054.65 112.568L1053.01 112.568L1053.01 110.342L1050.67 110.342L1050.67 108.662L1053.01 108.662L1053.01 106.436Z" fill="#9B3B5A" fill-opacity="0.3"/>
<path d="M1053.01 125.436L1054.65 125.436L1054.65 127.662L1056.9 127.662L1056.9 129.342L1054.65 129.342L1054.65 131.568L1053.01 131.568L1053.01 129.342L1050.67 129.342L1050.67 127.662L1053.01 127.662L1053.01 125.436Z" fill="#9B3B5A" fill-opacity="0.3"/>
<path d="M1053.01 144.436L1054.65 144.436L1054.65 146.662L1056.9 146.662L1056.9 148.342L1054.65 148.342L1054.65 150.568L1053.01 150.568L1053.01 148.342L1050.67 148.342L1050.67 146.662L1053.01 146.662L1053.01 144.436Z" fill="#9B3B5A" fill-opacity="0.3"/>
<path d="M1053.01 163.436L1054.65 163.436L1054.65 165.662L1056.9 165.662L1056.9 167.342L1054.65 167.342L1054.65 169.568L1053.01 169.568L1053.01 167.342L1050.67 167.342L1050.67 165.662L1053.01 165.662L1053.01 163.436Z" fill="#9B3B5A" fill-opacity="0.3"/>
<path d="M1034.63 68.4357L1036.27 68.4357L1036.27 70.6617L1038.52 70.6618L1038.52 72.3418L1036.27 72.3417L1036.27 74.5678L1034.63 74.5678L1034.63 72.3417L1032.29 72.3417L1032.29 70.6617L1034.63 70.6617L1034.63 68.4357Z" fill="#9B3B5A" fill-opacity="0.3"/>
<path d="M1034.63 87.4357L1036.27 87.4357L1036.27 89.6617L1038.52 89.6618L1038.52 91.3418L1036.27 91.3417L1036.27 93.5678L1034.63 93.5678L1034.63 91.3417L1032.29 91.3417L1032.29 89.6617L1034.63 89.6617L1034.63 87.4357Z" fill="#9B3B5A" fill-opacity="0.3"/>
<path d="M1034.63 106.436L1036.27 106.436L1036.27 108.662L1038.52 108.662L1038.52 110.342L1036.27 110.342L1036.27 112.568L1034.63 112.568L1034.63 110.342L1032.29 110.342L1032.29 108.662L1034.63 108.662L1034.63 106.436Z" fill="#9B3B5A" fill-opacity="0.3"/>
<path d="M1034.63 125.436L1036.27 125.436L1036.27 127.662L1038.52 127.662L1038.52 129.342L1036.27 129.342L1036.27 131.568L1034.63 131.568L1034.63 129.342L1032.29 129.342L1032.29 127.662L1034.63 127.662L1034.63 125.436Z" fill="#9B3B5A" fill-opacity="0.3"/>
<path d="M1034.63 144.436L1036.27 144.436L1036.27 146.662L1038.52 146.662L1038.52 148.342L1036.27 148.342L1036.27 150.568L1034.63 150.568L1034.63 148.342L1032.29 148.342L1032.29 146.662L1034.63 146.662L1034.63 144.436Z" fill="#9B3B5A" fill-opacity="0.3"/>
<path d="M1034.63 163.436L1036.27 163.436L1036.27 165.662L1038.52 165.662L1038.52 167.342L1036.27 167.342L1036.27 169.568L1034.63 169.568L1034.63 167.342L1032.29 167.342L1032.29 165.662L1034.63 165.662L1034.63 163.436Z" fill="#9B3B5A" fill-opacity="0.3"/>
<path d="M1016.26 68.4357L1017.89 68.4357L1017.89 70.6617L1020.15 70.6618L1020.15 72.3418L1017.89 72.3417L1017.89 74.5678L1016.26 74.5678L1016.26 72.3417L1013.92 72.3417L1013.92 70.6617L1016.26 70.6617L1016.26 68.4357Z" fill="#9B3B5A" fill-opacity="0.3"/>
<path d="M1016.25 87.4357L1017.89 87.4357L1017.89 89.6617L1020.15 89.6618L1020.15 91.3418L1017.89 91.3417L1017.89 93.5678L1016.25 93.5678L1016.25 91.3417L1013.92 91.3417L1013.92 89.6617L1016.25 89.6617L1016.25 87.4357Z" fill="#9B3B5A" fill-opacity="0.3"/>
<path d="M1016.25 106.436L1017.89 106.436L1017.89 108.662L1020.15 108.662L1020.15 110.342L1017.89 110.342L1017.89 112.568L1016.25 112.568L1016.25 110.342L1013.92 110.342L1013.92 108.662L1016.25 108.662L1016.25 106.436Z" fill="#9B3B5A" fill-opacity="0.3"/>
<path d="M1016.26 125.436L1017.89 125.436L1017.89 127.662L1020.15 127.662L1020.15 129.342L1017.89 129.342L1017.89 131.568L1016.26 131.568L1016.26 129.342L1013.92 129.342L1013.92 127.662L1016.26 127.662L1016.26 125.436Z" fill="#9B3B5A" fill-opacity="0.3"/>
<path d="M1016.26 144.436L1017.89 144.436L1017.89 146.662L1020.15 146.662L1020.15 148.342L1017.89 148.342L1017.89 150.568L1016.26 150.568L1016.26 148.342L1013.92 148.342L1013.92 146.662L1016.26 146.662L1016.26 144.436Z" fill="#9B3B5A" fill-opacity="0.3"/>
<path d="M1016.25 163.436L1017.89 163.436L1017.89 165.662L1020.15 165.662L1020.15 167.342L1017.89 167.342L1017.89 169.568L1016.25 169.568L1016.25 167.342L1013.92 167.342L1013.92 165.662L1016.25 165.662L1016.25 163.436Z" fill="#9B3B5A" fill-opacity="0.3"/>
<path d="M997.88 68.4357L999.518 68.4357L999.518 70.6617L1001.77 70.6618L1001.77 72.3418L999.518 72.3417L999.518 74.5678L997.88 74.5678L997.88 72.3417L995.542 72.3417L995.542 70.6617L997.88 70.6617L997.88 68.4357Z" fill="#9B3B5A" fill-opacity="0.3"/>
<path d="M997.88 87.4357L999.518 87.4357L999.518 89.6617L1001.77 89.6618L1001.77 91.3418L999.518 91.3417L999.518 93.5678L997.88 93.5678L997.88 91.3417L995.542 91.3417L995.542 89.6617L997.88 89.6617L997.88 87.4357Z" fill="#9B3B5A" fill-opacity="0.3"/>
<path d="M997.88 106.436L999.518 106.436L999.518 108.662L1001.77 108.662L1001.77 110.342L999.518 110.342L999.518 112.568L997.88 112.568L997.88 110.342L995.542 110.342L995.542 108.662L997.88 108.662L997.88 106.436Z" fill="#9B3B5A" fill-opacity="0.3"/>
<path d="M997.88 125.436L999.518 125.436L999.518 127.662L1001.77 127.662L1001.77 129.342L999.518 129.342L999.518 131.568L997.88 131.568L997.88 129.342L995.542 129.342L995.542 127.662L997.88 127.662L997.88 125.436Z" fill="#9B3B5A" fill-opacity="0.3"/>
<path d="M997.88 144.436L999.518 144.436L999.518 146.662L1001.77 146.662L1001.77 148.342L999.518 148.342L999.518 150.568L997.88 150.568L997.88 148.342L995.542 148.342L995.542 146.662L997.88 146.662L997.88 144.436Z" fill="#9B3B5A" fill-opacity="0.3"/>
<path d="M997.88 163.436L999.518 163.436L999.518 165.662L1001.77 165.662L1001.77 167.342L999.518 167.342L999.518 169.568L997.88 169.568L997.88 167.342L995.542 167.342L995.542 165.662L997.88 165.662L997.88 163.436Z" fill="#9B3B5A" fill-opacity="0.3"/>
<path d="M979.503 68.4357L981.141 68.4357L981.141 70.6617L983.395 70.6618L983.395 72.3418L981.141 72.3417L981.141 74.5678L979.503 74.5678L979.503 72.3417L977.165 72.3417L977.165 70.6617L979.503 70.6617L979.503 68.4357Z" fill="#9B3B5A" fill-opacity="0.3"/>
<path d="M979.503 87.4357L981.141 87.4357L981.141 89.6617L983.395 89.6618L983.395 91.3418L981.141 91.3417L981.141 93.5678L979.503 93.5678L979.503 91.3417L977.165 91.3417L977.165 89.6617L979.503 89.6617L979.503 87.4357Z" fill="#9B3B5A" fill-opacity="0.3"/>
<path d="M979.503 106.436L981.141 106.436L981.141 108.662L983.395 108.662L983.395 110.342L981.141 110.342L981.141 112.568L979.503 112.568L979.503 110.342L977.165 110.342L977.165 108.662L979.503 108.662L979.503 106.436Z" fill="#9B3B5A" fill-opacity="0.3"/>
<path d="M979.503 125.436L981.141 125.436L981.141 127.662L983.395 127.662L983.395 129.342L981.141 129.342L981.141 131.568L979.503 131.568L979.503 129.342L977.165 129.342L977.165 127.662L979.503 127.662L979.503 125.436Z" fill="#9B3B5A" fill-opacity="0.3"/>
<path d="M979.503 144.436L981.141 144.436L981.141 146.662L983.395 146.662L983.395 148.342L981.141 148.342L981.141 150.568L979.503 150.568L979.503 148.342L977.165 148.342L977.165 146.662L979.503 146.662L979.503 144.436Z" fill="#9B3B5A" fill-opacity="0.3"/>
<path d="M979.503 163.436L981.141 163.436L981.141 165.662L983.395 165.662L983.395 167.342L981.141 167.342L981.141 169.568L979.503 169.568L979.503 167.342L977.165 167.342L977.165 165.662L979.503 165.662L979.503 163.436Z" fill="#9B3B5A" fill-opacity="0.3"/>
<path d="M961.126 68.4357L962.764 68.4357L962.764 70.6617L965.018 70.6618L965.018 72.3418L962.764 72.3417L962.764 74.5678L961.126 74.5678L961.126 72.3417L958.788 72.3417L958.788 70.6617L961.126 70.6617L961.126 68.4357Z" fill="#9B3B5A" fill-opacity="0.3"/>
<path d="M961.126 87.4357L962.764 87.4357L962.764 89.6617L965.018 89.6618L965.018 91.3418L962.764 91.3417L962.764 93.5678L961.126 93.5678L961.126 91.3417L958.788 91.3417L958.788 89.6617L961.126 89.6617L961.126 87.4357Z" fill="#9B3B5A" fill-opacity="0.3"/>
<path d="M961.126 106.436L962.764 106.436L962.764 108.662L965.018 108.662L965.018 110.342L962.764 110.342L962.764 112.568L961.126 112.568L961.126 110.342L958.788 110.342L958.788 108.662L961.126 108.662L961.126 106.436Z" fill="#9B3B5A" fill-opacity="0.3"/>
<path d="M961.126 125.436L962.764 125.436L962.764 127.662L965.018 127.662L965.018 129.342L962.764 129.342L962.764 131.568L961.126 131.568L961.126 129.342L958.788 129.342L958.788 127.662L961.126 127.662L961.126 125.436Z" fill="#9B3B5A" fill-opacity="0.3"/>
<path d="M961.126 144.436L962.764 144.436L962.764 146.662L965.018 146.662L965.018 148.342L962.764 148.342L962.764 150.568L961.126 150.568L961.126 148.342L958.788 148.342L958.788 146.662L961.126 146.662L961.126 144.436Z" fill="#9B3B5A" fill-opacity="0.3"/>
<path d="M961.126 163.436L962.764 163.436L962.764 165.662L965.018 165.662L965.018 167.342L962.764 167.342L962.764 169.568L961.126 169.568L961.126 167.342L958.788 167.342L958.788 165.662L961.126 165.662L961.126 163.436Z" fill="#9B3B5A" fill-opacity="0.3"/>
<path d="M942.749 68.4357L944.387 68.4357L944.387 70.6617L946.641 70.6618L946.641 72.3418L944.387 72.3417L944.387 74.5678L942.749 74.5678L942.749 72.3417L940.411 72.3417L940.411 70.6617L942.749 70.6617L942.749 68.4357Z" fill="#9B3B5A" fill-opacity="0.3"/>
<path d="M942.749 87.4357L944.387 87.4357L944.387 89.6617L946.641 89.6618L946.641 91.3418L944.387 91.3417L944.387 93.5678L942.749 93.5678L942.749 91.3417L940.411 91.3417L940.411 89.6617L942.749 89.6617L942.749 87.4357Z" fill="#9B3B5A" fill-opacity="0.3"/>
<path d="M942.749 106.436L944.387 106.436L944.387 108.662L946.641 108.662L946.641 110.342L944.387 110.342L944.387 112.568L942.749 112.568L942.749 110.342L940.411 110.342L940.411 108.662L942.749 108.662L942.749 106.436Z" fill="#9B3B5A" fill-opacity="0.3"/>
<path d="M942.749 125.436L944.387 125.436L944.387 127.662L946.641 127.662L946.641 129.342L944.387 129.342L944.387 131.568L942.749 131.568L942.749 129.342L940.411 129.342L940.411 127.662L942.749 127.662L942.749 125.436Z" fill="#9B3B5A" fill-opacity="0.3"/>
<path d="M942.749 144.436L944.387 144.436L944.387 146.662L946.641 146.662L946.641 148.342L944.387 148.342L944.387 150.568L942.749 150.568L942.749 148.342L940.411 148.342L940.411 146.662L942.749 146.662L942.749 144.436Z" fill="#9B3B5A" fill-opacity="0.3"/>
<path d="M942.749 163.436L944.387 163.436L944.387 165.662L946.641 165.662L946.641 167.342L944.387 167.342L944.387 169.568L942.749 169.568L942.749 167.342L940.411 167.342L940.411 165.662L942.749 165.662L942.749 163.436Z" fill="#9B3B5A" fill-opacity="0.3"/>
<path d="M924.374 68.4357L926.012 68.4357L926.012 70.6617L928.266 70.6618L928.266 72.3418L926.012 72.3417L926.012 74.5678L924.374 74.5678L924.374 72.3417L922.036 72.3417L922.036 70.6617L924.374 70.6617L924.374 68.4357Z" fill="#9B3B5A" fill-opacity="0.3"/>
<path d="M924.372 87.4357L926.01 87.4357L926.01 89.6617L928.264 89.6618L928.264 91.3418L926.01 91.3417L926.01 93.5678L924.372 93.5678L924.372 91.3417L922.034 91.3417L922.034 89.6617L924.372 89.6617L924.372 87.4357Z" fill="#9B3B5A" fill-opacity="0.3"/>
<path d="M924.372 106.436L926.01 106.436L926.01 108.662L928.264 108.662L928.264 110.342L926.01 110.342L926.01 112.568L924.372 112.568L924.372 110.342L922.034 110.342L922.034 108.662L924.372 108.662L924.372 106.436Z" fill="#9B3B5A" fill-opacity="0.3"/>
<path d="M924.372 125.436L926.01 125.436L926.01 127.662L928.264 127.662L928.264 129.342L926.01 129.342L926.01 131.568L924.372 131.568L924.372 129.342L922.034 129.342L922.034 127.662L924.372 127.662L924.372 125.436Z" fill="#9B3B5A" fill-opacity="0.3"/>
<path d="M924.372 144.436L926.01 144.436L926.01 146.662L928.264 146.662L928.264 148.342L926.01 148.342L926.01 150.568L924.372 150.568L924.372 148.342L922.034 148.342L922.034 146.662L924.372 146.662L924.372 144.436Z" fill="#9B3B5A" fill-opacity="0.3"/>
<path d="M924.372 163.436L926.01 163.436L926.01 165.662L928.264 165.662L928.264 167.342L926.01 167.342L926.01 169.568L924.372 169.568L924.372 167.342L922.034 167.342L922.034 165.662L924.372 165.662L924.372 163.436Z" fill="#9B3B5A" fill-opacity="0.3"/>
<path d="M905.997 68.4357L907.635 68.4357L907.635 70.6617L909.889 70.6618L909.889 72.3418L907.635 72.3417L907.635 74.5678L905.997 74.5678L905.997 72.3417L903.659 72.3417L903.659 70.6617L905.997 70.6617L905.997 68.4357Z" fill="#9B3B5A" fill-opacity="0.3"/>
<path d="M905.997 87.4357L907.635 87.4357L907.635 89.6617L909.889 89.6618L909.889 91.3418L907.635 91.3417L907.635 93.5678L905.997 93.5678L905.997 91.3417L903.659 91.3417L903.659 89.6617L905.997 89.6617L905.997 87.4357Z" fill="#9B3B5A" fill-opacity="0.3"/>
<path d="M905.997 106.436L907.635 106.436L907.635 108.662L909.889 108.662L909.889 110.342L907.635 110.342L907.635 112.568L905.997 112.568L905.997 110.342L903.659 110.342L903.659 108.662L905.997 108.662L905.997 106.436Z" fill="#9B3B5A" fill-opacity="0.3"/>
<path d="M905.997 125.436L907.635 125.436L907.635 127.662L909.889 127.662L909.889 129.342L907.635 129.342L907.635 131.568L905.997 131.568L905.997 129.342L903.659 129.342L903.659 127.662L905.997 127.662L905.997 125.436Z" fill="#9B3B5A" fill-opacity="0.3"/>
<path d="M905.997 144.436L907.635 144.436L907.635 146.662L909.889 146.662L909.889 148.342L907.635 148.342L907.635 150.568L905.997 150.568L905.997 148.342L903.659 148.342L903.659 146.662L905.997 146.662L905.997 144.436Z" fill="#9B3B5A" fill-opacity="0.3"/>
<path d="M905.997 163.436L907.635 163.436L907.635 165.662L909.889 165.662L909.889 167.342L907.635 167.342L907.635 169.568L905.997 169.568L905.997 167.342L903.659 167.342L903.659 165.662L905.997 165.662L905.997 163.436Z" fill="#9B3B5A" fill-opacity="0.3"/>
<path fill-rule="evenodd" clip-rule="evenodd" d="M582.349 234.193C575.607 248.752 585.797 277.828 589.475 291.692C596.746 319.11 605.215 345.684 613.425 372.4C621.634 399.116 629.905 425.82 636.68 453.55C641.08 471.553 646.504 492.163 645.587 512.723C643.627 556.533 602.231 520.229 590.553 512.87C560.84 494.157 528.178 469.656 492.91 467.99C471.856 466.995 457.168 480.067 448.6 508.297C445.804 517.471 444.606 529.472 437.994 535.63C430.932 542.207 421.704 542.318 414.419 541.609C387.855 539.01 363.247 523.319 340.494 509.111C315.944 493.823 292.194 476.185 268.542 459.453C258.513 452.358 245.519 450.343 233.923 447.965C218.722 444.847 203.334 442.55 188.002 440.006C154.288 434.375 119.401 428.889 88.9329 411.8C69.8519 401.1 51.5137 384.018 46.4431 354.833C43.8973 340.179 46.8944 323.242 48.76 307.627C51.0036 288.756 53.5119 269.877 55.3245 251.02C61.1585 190.284 59.2459 125.492 21.2017 95.1103C15.4457 90.5155 9.07935 87.5301 3.08014 83.5356C-0.738168 80.9871 -3.43669 77.2215 -2.04765 70.263C1.42816 52.804 23.4855 37.0873 33.5504 28.4581C55.5843 9.57133 78.3386 -7.24645 100.687 -25.2131C115.47 -37.0931 138.194 -51.5254 147.872 -71.8808C156.494 -90.0178 146.677 -114.6 142.176 -129.787C137.954 -144.011 128.687 -166.318 135.778 -184.047C139.217 -192.643 146.027 -196.935 152.277 -199.577C163.223 -204.185 173.889 -205.332 184.787 -211.727C202.662 -222.222 222.001 -240.419 231.664 -264.871C238.359 -281.815 237.217 -296.86 234.19 -312.627C232.918 -319.256 231.677 -324.189 234.756 -331.273C239.641 -342.525 247.959 -352.183 255.098 -360.75C280.642 -391.415 309.155 -418.341 337.911 -441.956C352.282 -453.758 367.161 -465.128 382.559 -472.952C392.655 -478.1 405.584 -483.574 414.372 -477.275C424.554 -469.997 432.723 -456.721 440.672 -445.478C455.517 -424.474 469.57 -402.413 483.441 -380.172C515.517 -328.728 546.388 -275.834 576.054 -221.492C596.937 -183.186 618.424 -144.413 634.87 -101.575C638.062 -93.1889 640.601 -84.2574 642.451 -74.901C644.479 -65.0137 649.341 -57.7634 654.625 -51.1715C687.425 -10.2575 734.758 10.1666 776.783 31.7975C787.449 37.2908 798.118 42.7757 808.588 48.7677C817.588 53.9186 829.114 58.4786 835.49 68.5629C848.056 88.4244 819.696 108.249 807.921 116.17C766.464 144.06 721.924 160.892 679.038 179.922C658.634 189 638.16 197.964 617.946 208.516C607.427 213.995 588.26 221.43 582.349 234.193Z" stroke="#9B3B5A" stroke-opacity="0.07"/>
<path fill-rule="evenodd" clip-rule="evenodd" d="M573.859 231.39C573.209 251.431 579.361 270.984 583.878 288.476C590.375 313.654 597.702 338.284 604.622 363.182C611.164 386.725 617.658 410.449 622.332 435.216C625.181 450.319 629.026 468.692 625.775 485.692C618.734 522.546 579.915 488.442 569.398 482.02C543.257 466.046 514.48 446.097 483.451 445.97C464.075 445.891 450.097 458.738 442.096 484.725C439.326 493.716 437.979 502.119 431.71 508.551C424.456 515.996 415.188 517.246 407.274 517.147C382.482 516.841 359.091 503.82 337.749 491.644C315.702 479.064 293.106 465.155 273.661 448.928C265.884 442.442 254.717 439.719 245.286 437.011C230.773 432.85 216.051 429.495 201.441 425.717C171.745 418.047 141.574 409.541 115.1 392.103C95.9871 379.513 78.4885 361.187 70.7758 333.186C62.9645 304.798 68.3363 273.287 71.3451 241.833C76.5629 187.464 80.8677 119.903 50.1617 85.6785C45.5065 80.4868 40.051 77.5982 34.9088 73.4649C32.2633 71.3423 29.4167 68.5731 29.939 63.5067C31.2953 50.3541 50.1755 38.0292 57.2748 32.2864C76.8915 16.415 97.1328 2.45328 116.986 -12.6726C132.752 -24.6815 151.461 -37.1741 164.071 -55.7553C179.372 -78.3038 164.37 -112.854 164.418 -136.399C164.504 -177.223 199.631 -175.41 219.754 -180.52C242.86 -186.383 269.763 -207.983 268.204 -243.724C267.607 -257.392 263.928 -267.913 267.642 -282.538C273.45 -305.411 287.032 -326.584 299.355 -344.489C317.89 -371.397 338.876 -396.118 361.204 -416.452C377.194 -431.007 402.894 -453.381 418.561 -439.126C429.114 -429.544 437.958 -415.77 446.622 -402.991C459.597 -383.859 471.882 -363.842 483.928 -343.561C511.761 -296.799 538.219 -248.264 562.916 -198.028C579.764 -163.745 616.658 -46.4884 620.693 -40.3613C632.729 -22.0987 650.855 -10.8422 667.275 -0.601448C689.117 13.0232 711.961 24.2006 734.656 35.6498C745.454 41.1092 756.479 46.2277 766.929 52.5846C774.366 57.1101 784.007 63.3238 787.329 74.1209C793.816 95.1901 767.008 113.626 755.796 121.519C721.437 145.725 684.788 161.758 649.17 179.477C631.687 188.181 614.063 196.749 596.913 207.389C589.992 211.689 574.258 219.011 573.859 231.39Z" stroke="#9B3B5A" stroke-opacity="0.07"/>
<path fill-rule="evenodd" clip-rule="evenodd" d="M561.143 232.816C564.61 276.327 578.541 316.803 587.787 357.682C592.426 378.204 596.967 399.125 598.988 421.063C600.04 432.472 601.295 446.845 597.014 458.64C585.559 490.191 550.447 459.719 538.846 452.935C516.413 439.826 491.451 424.203 464.926 425.523C448.718 426.334 435.748 437.41 428.599 459.043C425.427 468.641 423.427 477.292 416.832 484.229C410.15 491.257 401.926 493.706 394.365 494.545C372.631 496.967 351.428 487.551 332.542 478.328C310.398 467.482 289.165 454.249 269.014 438.738C251.36 425.163 229.695 420.418 209.651 413.171C183.1 403.565 156.542 392.769 133.166 374.821C114.705 360.642 98.4583 341.304 89.5726 314.425C80.5597 287.076 81.6983 256.598 84.6702 224.955C89.1631 177.121 96.4396 113.918 73.8636 78.3939C70.5822 73.223 66.7106 70.1448 62.4777 66.6275C60.4212 64.9201 57.6843 62.8903 58.2041 58.7472C59.4586 48.7726 76.279 39.7199 81.4858 36.0963C98.1066 24.5279 115.064 14.2567 131.785 3.07106C147.396 -7.37183 164.043 -17.9835 177.906 -33.3877C199.979 -57.9254 182.811 -93.771 196.979 -122.061C205.776 -139.623 223.054 -144.376 236.137 -146.856C252.239 -149.896 271.435 -145.74 286.243 -161.706C297.273 -173.599 294.866 -186.829 295.164 -201.624C295.667 -226.691 307.167 -252.938 318.35 -274.377C333.459 -303.35 352.201 -330.314 372.846 -352.115C382.204 -361.999 392.594 -371.811 403.51 -376.88C413.738 -381.632 420.502 -379.888 427.66 -372.302C449.566 -349.071 466.971 -315.526 483.919 -284.561C505.213 -245.654 525.235 -205.191 543.241 -162.899C555.518 -134.058 567.823 -104.034 575.058 -71.1412C576.943 -62.5668 578.714 -53.4464 578.605 -43.9925C578.537 -36.8764 577.501 -31.7008 580.183 -25.6929C588.133 -7.88958 606.207 1.86011 619.716 10.2561C641.312 23.6877 663.976 34.5484 686.425 45.7872C699.532 52.331 725.472 61.9852 727.681 84.8833C729.585 104.654 708.514 120.979 697.686 129.456C670.3 150.891 640.942 165.898 612.42 182.571C599.348 190.212 585.951 197.751 573.454 207.702C570.266 210.237 565.623 213.298 563.162 217.386C560.351 222.079 560.725 227.46 561.143 232.816Z" stroke="#9B3B5A" stroke-opacity="0.07"/>
<path fill-rule="evenodd" clip-rule="evenodd" d="M562.953 224.56C566.729 263.54 576.147 300.078 581.952 338.179C584.554 355.262 586.973 372.96 586.515 391.203C586.269 401.013 585.319 412.905 580.075 421.569C565.025 446.435 535.725 422.274 522.702 415.051C503.363 404.293 481.298 391.608 458.42 394.463C443.433 396.332 432.958 407.426 426.54 426.803C419.657 447.589 408.38 458.189 392.568 461.227C372.749 465.025 353.109 458.309 335.58 450.982C314.473 442.131 294.341 430.506 275.432 416.248C257.043 402.38 236.768 394.208 216.808 384.052C190.347 370.583 164.064 354.481 143.697 328.76C125.964 306.363 114.374 276.658 111.664 241.595C108.823 204.992 116.679 167.049 117.937 129.699C118.722 106.402 119.218 75.1976 108.318 58.1328C104.683 52.4411 94.6224 49.4227 103.721 40.7094C108.923 35.7252 115.628 32.8842 121.304 29.8281C130.477 24.8886 139.709 20.3082 148.912 15.5493C168.53 5.40371 189.118 -4.56251 207.5 -20.0413C230.653 -39.5238 224.709 -71.5032 239.414 -97.5277C247.325 -111.534 259.577 -118.469 271.04 -122.601C278.461 -125.282 285.942 -126.85 293.368 -127.994C301.123 -129.191 309.305 -128.477 317.062 -131.646C328.11 -136.149 330.34 -149.235 334.698 -162.151C342.353 -184.853 351.89 -206.654 363.094 -227.06C376.823 -252.073 392.96 -276.362 411.607 -294.682C418.865 -301.816 427.167 -308.944 435.595 -311.181C444.023 -313.418 449.549 -308.902 455.019 -302.504C471.255 -283.548 484.034 -257.307 496.2 -232.398C511.424 -201.22 525.375 -168.567 537.246 -134.279C545.439 -110.609 553.179 -85.8335 556.795 -59.0975C557.845 -51.3182 558.55 -43.2876 558.309 -35.0573C558.145 -29.4117 556.536 -23.1264 557.706 -17.9582C561.38 -1.81166 579.676 7.22954 589.813 13.6897C610.044 26.5844 632.024 34.8487 652.314 47.5431C663.389 54.4698 681.061 64.6146 682.465 84.1035C683.788 102.426 667.492 118.146 657.199 127.533C636.966 145.992 615.001 159.622 593.803 175.073C585.085 181.434 575.749 187.936 567.921 196.721C560.952 204.554 561.987 214.567 562.953 224.56Z" stroke="#9B3B5A" stroke-opacity="0.07"/>
<path fill-rule="evenodd" clip-rule="evenodd" d="M559.106 221.214C561.044 254.526 566.934 287.077 568.785 320.846C569.865 340.619 571.998 374.087 556.634 389.892C539.762 407.267 516.605 391.516 502.551 383.842C485.824 374.708 465.991 364.388 446.084 368.538C439.789 369.849 433.467 373.02 428.381 379.515C422.937 386.465 421.415 394.863 417.848 403.166C410.365 420.585 397.247 429.486 383.963 432.543C365.185 436.868 346.539 431.93 329.653 425.71C310.533 418.64 292.305 408.864 275.232 396.521C258.908 384.739 242.46 373.716 225.783 362.642C203.966 348.176 182.881 331.281 166.134 307.796C149.639 284.655 138.479 255.406 134.818 221.502C131.25 188.42 134.699 153.566 139.585 119.045C142.36 99.4532 145.574 69.5083 137.985 53.1855C134.612 45.9238 129.518 42.6157 139.33 37.0144C151.685 29.9618 165.301 26.9509 177.926 22.3894C196.14 15.8038 214.773 9.1339 232.462 -1.53151C243.758 -8.34165 251.527 -17.2321 257.858 -31.9785C262.676 -43.2157 266.297 -55.1567 272.201 -65.6739C286.056 -90.3619 307.827 -98.5209 327.467 -106.572C340.1 -111.749 350.888 -114.873 361.907 -127.206C374.935 -141.779 385.993 -159.86 397.794 -176.224C410.755 -194.194 424.63 -212.605 440.501 -225.247C454.63 -236.503 466.071 -237.901 476.16 -224.936C491.898 -204.719 502.769 -174.859 512.372 -147.559C522.149 -119.78 530.726 -90.2707 534.853 -58.743C537.08 -41.7189 535.943 -24.4119 536.914 -7.13913C538.149 14.5575 560.196 22.4344 572.275 29.3068C592.326 40.7147 659.86 67.1029 629.508 116.295C616.839 136.827 598.194 150.807 582.408 165.633C575.861 171.789 567.323 178.69 562.351 187.553C556.936 197.206 558.528 211.19 559.106 221.214Z" stroke="#9B3B5A" stroke-opacity="0.07"/>
<path fill-rule="evenodd" clip-rule="evenodd" d="M553.127 214.23C553.02 243.085 555.446 272.152 553.104 301.726C551.597 320.886 547.607 345.073 532.909 355.978C516.32 368.283 496.43 359.698 482.186 352.596C467.512 345.276 450.385 335.7 432.882 341.51C427.311 343.364 421.647 347.185 417.805 353.862C414.117 360.265 412.424 368.095 408.713 374.645C400.381 389.355 388.225 397.694 375.916 401.245C339.504 411.754 301.511 392.719 272.683 373.068C258.255 363.229 244.45 350.87 230.722 339.271C212.907 324.22 195.994 307.159 182.428 285.478C153.579 239.389 148.048 178.95 154.986 113.622C157.17 93.0602 161.296 72.072 158.803 52.5106C157.523 42.4151 160.815 38.1748 168.343 35.1834C180.111 30.5109 192.378 29.2798 204.178 26.7939C220.961 23.2596 238.067 19.7252 254.615 12.9495C266.021 8.27838 275.257 2.52462 283.482 -10.8268C289.348 -20.3456 293.993 -30.9967 299.464 -40.8822C309.86 -59.6595 323.136 -76.1803 338.126 -87.2054C350.021 -95.9339 362.482 -102.687 374.922 -108.727C391.104 -116.6 405.949 -125.739 421.149 -137.947C441.283 -154.097 474.275 -186.852 491.281 -159.786C510.036 -129.928 518.374 -82.166 519.918 -40.5603C520.438 -26.5904 518.933 -10.9885 522.544 1.62124C527.96 20.4807 538.965 27.822 551.672 36.843C570.693 50.355 614.942 73.6402 595.221 117.124C587.407 134.352 574.974 147.035 564.953 161.815C553.711 178.355 553.185 194.555 553.127 214.23Z" stroke="#9B3B5A" stroke-opacity="0.07"/>
<path fill-rule="evenodd" clip-rule="evenodd" d="M546.571 206.965C543.282 242.321 543.818 304.665 512.219 324.008C495.523 334.233 476.804 329.179 461.81 323.424C449.736 318.807 436.343 310.741 422.323 317.735C412.016 322.878 408.269 338.407 400.514 348.525C390.897 361.066 378.867 368.353 366.739 371.624C332.846 380.769 298.386 366.377 270.912 348.918C242.38 330.781 215.513 301.013 196.525 267.121C172.853 224.856 165.275 171.452 169.506 113.706C170.289 103.048 171.462 92.3746 172.417 81.7042C173.055 74.5441 172.626 66.8696 173.832 59.7206C175.846 47.8032 182.809 41.8613 190.889 38.9316C202.515 34.709 214.529 34.3766 226.074 33.2231C241.864 31.6385 257.825 30.4069 273.61 26.5878C284.221 24.011 295.437 21.0815 304.137 9.66845C310.071 1.88521 314.889 -7.40719 319.19 -16.7874C328.409 -36.9015 336.665 -52.5948 351.39 -66.5261C375.587 -89.3811 403.817 -105.306 430.803 -116.057C451.981 -124.494 485.254 -137.334 498.559 -112.06C510.507 -89.4052 508.556 -57.0167 510.118 -28.5863C510.878 -14.7644 512.709 -1.32885 516.542 10.8567C521.376 26.2187 528.103 36.0233 538.089 45.1092C554.895 60.4027 581.67 80.3944 571.955 117.035C568.371 130.557 561.366 142.21 556.734 155.193C550.593 172.347 548.23 189.13 546.571 206.965Z" stroke="#9B3B5A" stroke-opacity="0.07"/>
<path fill-rule="evenodd" clip-rule="evenodd" d="M536.745 198.538C529.356 234.516 520.421 280.127 490.522 295.424C476.038 302.835 460.939 301.972 447.093 299.496C437.175 297.725 423.837 289.756 413.172 298.483C405.33 304.911 399.014 316.996 391.217 324.315C380.5 334.379 368.557 340.44 356.541 343.279C325.235 350.681 294.015 339.872 268.065 324.617C211.683 291.464 176.806 209.591 180.789 118.751C181.974 91.6715 181.288 61.4576 205.172 50C231.241 37.5091 259.197 42.9103 285.045 39.2711C294.919 37.8854 307.289 36.5763 316.502 27.8738C322.042 22.6439 326.24 14.1143 329.889 6.60602C339.193 -12.5106 348.366 -29.1261 361.907 -43.4901C382.828 -65.6914 407.443 -82.3754 431.566 -93.2109C452.602 -102.658 480.45 -111.526 492.365 -85.3578C501.489 -65.2708 500.205 -37.3975 503.553 -13.7814C507.272 12.5135 516.532 35.0595 530.1 52.5413C543.307 69.5322 558.908 85.777 556.026 115.797C555.037 126.095 553.041 138.916 549.849 148.814C544.549 165.108 540.167 181.738 536.745 198.538V198.538Z" stroke="#9B3B5A" stroke-opacity="0.07"/>
<path fill-rule="evenodd" clip-rule="evenodd" d="M525.347 190.098C514.022 223.665 499.17 256.491 472.49 270.257C460.04 276.677 447.274 278.434 434.765 279.353C425.561 280.03 416.537 279.699 407.395 285.059C398.928 290.02 390.945 297.101 382.535 302.391C371.419 309.422 359.853 314.119 348.282 316.303C319.295 321.74 290.893 313.672 266.334 300.36C254.442 293.922 241.95 286.066 232.826 273.921C224.011 262.196 216.422 248.193 210.074 233.653C196.571 202.76 189.316 166.467 189.933 127.579C190.36 100.907 194.669 77.7568 215.937 65.593C239.912 51.8837 266.525 53.8871 290.559 51.0464C307.043 49.0982 324.842 48.3612 337.243 28.0452C347.112 11.8809 356.241 -3.63159 368.421 -16.8728C386.446 -36.3611 406.549 -51.3166 427.536 -60.8522C446.7 -69.5082 467.682 -73.4791 479.712 -52.9396C489.238 -36.6542 491.768 -13.6158 497.674 5.78405C504.244 27.4322 514.711 44.2608 526.549 60.238C537.178 74.6166 545.772 91.1802 546.429 113.772C546.566 118.391 546.648 123.372 546.203 128.111C545.635 134.158 543.264 138.859 541.063 144.519C535.243 159.447 530.475 174.906 525.347 190.098Z" stroke="#9B3B5A" stroke-opacity="0.07"/>
<path fill-rule="evenodd" clip-rule="evenodd" d="M511.475 183.588C497.335 213.054 479.533 237.729 455.851 251.641C445.724 257.595 435.342 261.041 425.048 265.773C416.756 269.591 408.974 273.084 400.551 275.095C380.583 279.838 361.148 290.555 341.075 293.141C314.267 296.617 288.26 290.541 265.05 278.953C253.716 273.297 242.593 266.2 232.961 256.553C224.687 248.267 218.884 235.793 213.779 223.626C203.77 199.786 196.683 171.006 196.898 141.157C197.372 75.3488 258.958 71.2802 291.787 66.5832C306.886 64.4207 328.278 64.7084 341.592 48.5637C351.105 37.0316 359.519 24.4024 369.724 13.931C397.133 -14.189 438.505 -40.7332 464.828 -14.4459C476.094 -3.20079 482.839 14.5876 491.351 29.3766C500.115 44.6063 510.65 57.135 521.102 70.0904C530.871 82.1957 537.534 94.2482 538.158 114.238C538.458 123.786 534.23 131.936 530.538 140.746C524.47 155.216 518.166 169.625 511.475 183.588Z" stroke="#9B3B5A" stroke-opacity="0.07"/>
<path fill-rule="evenodd" clip-rule="evenodd" d="M498.159 179.136C472.589 220.59 432.481 257.132 394.941 264.988C350.783 274.229 306.392 276.86 267.248 258.758C249.1 250.365 230.188 239.1 219.824 216.713C211.933 199.681 204.097 177.051 205.946 154.426C210.466 99.081 262.377 89.559 292.14 83.7349C308.163 80.6 327.035 79.8737 342.722 69.7833C351.821 63.935 359.98 53.4279 368.585 46.0122C394.66 23.54 425.495 12.4219 451.514 25.091C463.544 30.9507 473.508 41.4622 483.551 51.3351C493.832 61.4403 504.694 70.7013 514.523 81.5737C522.369 90.2543 531.061 101.669 527.58 118.503C523.196 139.717 508.6 162.206 498.159 179.136Z" stroke="#9B3B5A" stroke-opacity="0.07"/>
<path fill-rule="evenodd" clip-rule="evenodd" d="M483.477 178.238C457.027 215.49 423.482 246.291 387.601 254.169C368.574 258.345 349.416 256.923 330.903 255.814C309.919 254.556 289.287 250.474 270.177 242.105C246.382 231.687 209.502 211.265 215.629 166.1C221.711 121.27 265.111 108.767 290.448 102.075C306.688 97.7941 323.221 95.0279 339.504 89.2968C348.332 86.1905 356.404 81.0788 364.952 76.1442C388.606 62.4488 415.532 57.4686 438.857 61.2086C461.465 64.8314 485.944 76.779 503.722 93.6303C511.395 100.896 515.221 109.64 511.748 124.239C506.908 144.526 494.405 162.851 483.477 178.238Z" stroke="#9B3B5A" stroke-opacity="0.07"/>
<path fill-rule="evenodd" clip-rule="evenodd" d="M466.933 181.539C442.878 213.79 412.531 237.259 380.944 244.357C345.536 252.314 308.471 244.305 277.062 231.255C260.368 224.314 223.24 211.312 229.192 176.822C235.145 142.333 270.54 129.451 290.576 122.755C314.88 114.656 340.079 108.075 364.649 102.784C386.002 98.1769 408.475 93.9258 429.439 93.5663C441.28 93.3256 452.929 94.5446 464.246 97.2087C472.615 99.2057 483.565 101.088 489.836 108.538C505.652 127.336 478.435 166.119 466.933 181.539Z" stroke="#9B3B5A" stroke-opacity="0.07"/>
<path fill-rule="evenodd" clip-rule="evenodd" d="M447.857 182.709C400.327 242.241 337.392 243.243 286.691 223.031C274.91 218.331 240.841 207.393 244.99 181.794C249.015 156.976 278.566 145.256 292.466 139.631C335.538 122.2 380.408 118.522 423.466 113.882C436.907 112.434 462.565 106.784 470.558 123.564C479.228 141.799 457.71 170.363 447.857 182.709Z" stroke="#9B3B5A" stroke-opacity="0.07"/>
<path fill-rule="evenodd" clip-rule="evenodd" d="M426.416 185.379C389.444 227.812 338.227 230.696 299.294 215.886C289.76 212.257 264.905 204.408 265.259 185.445C265.584 167.902 288.687 158.659 297.54 154.752C317.251 146.05 337.727 141.911 357.78 138.198C376.325 134.757 395.153 131.1 413.459 130.064C423.099 129.522 441.852 127.065 445.828 141.386C450.113 156.796 434.625 175.956 426.416 185.379Z" stroke="#9B3B5A" stroke-opacity="0.07"/>
<path fill-rule="evenodd" clip-rule="evenodd" d="M402.686 188.536C377.139 215.244 340.673 218.38 314.13 209.109C306.989 206.611 291.161 202.056 290.114 189.298C289.151 177.549 302.625 170.966 308.707 167.826C335.666 153.904 368.503 147.729 395.454 148.785C402.23 149.051 414.675 148.961 416.76 159.691C418.895 170.706 408.553 182.405 402.686 188.536Z" stroke="#9B3B5A" stroke-opacity="0.07"/>
<path fill-rule="evenodd" clip-rule="evenodd" d="M378.375 190.049C365.034 202.843 344.705 205.159 330.875 200.636C321.143 197.45 312.174 187.781 326.312 178.45C340.35 169.195 360.032 165.647 374.22 167.978C385.043 169.759 389.833 179.059 378.375 190.049Z" stroke="#9B3B5A" stroke-opacity="0.07"/>
</g>
</svg>
