<svg width="34" height="34" viewBox="0 0 34 34" fill="none" xmlns="http://www.w3.org/2000/svg">
<circle cx="17" cy="17" r="17" fill="white"/>
<path fill-rule="evenodd" clip-rule="evenodd" d="M10.1868 13.7292C9.79727 13.7292 9.47852 13.4104 9.47852 13.0208V11.6042H8.06185C7.67227 11.6042 7.35352 11.2854 7.35352 10.8958C7.35352 10.5063 7.67227 10.1875 8.06185 10.1875H9.47852V8.77083C9.47852 8.38125 9.79727 8.0625 10.1868 8.0625C10.5764 8.0625 10.8952 8.38125 10.8952 8.77083V10.1875H12.3118C12.7014 10.1875 13.0202 10.5063 13.0202 10.8958C13.0202 11.2854 12.7014 11.6042 12.3118 11.6042H10.8952V13.0208C10.8952 13.4104 10.5764 13.7292 10.1868 13.7292ZM14.7215 16.2083C15.1011 15.5509 15.8027 15.1458 16.5618 15.1458C17.321 15.1458 18.0226 15.5509 18.4022 16.2083C18.7817 16.8658 18.7817 17.6759 18.4022 18.3333C18.0226 18.9908 17.321 19.3958 16.5618 19.3958C15.8027 19.3958 15.1011 18.9908 14.7215 18.3333C14.342 17.6759 14.342 16.8658 14.7215 16.2083ZM22.2285 11.6042H19.9831L19.1048 10.6479C18.8427 10.3575 18.4602 10.1875 18.0635 10.1875H13.5302C13.6506 10.4 13.7285 10.6337 13.7285 10.8958C13.7285 11.675 13.091 12.3125 12.3118 12.3125H11.6035V13.0208C11.6035 13.8 10.966 14.4375 10.1868 14.4375C9.92477 14.4375 9.69102 14.3596 9.47852 14.2392V21.5208C9.47852 22.3 10.116 22.9375 10.8952 22.9375H22.2285C23.0077 22.9375 23.6452 22.3 23.6452 21.5208V13.0208C23.6452 12.2417 23.0077 11.6042 22.2285 11.6042ZM13.0202 17.2708C13.0202 19.2258 14.6068 20.8125 16.5618 20.8125C18.5168 20.8125 20.1035 19.2258 20.1035 17.2708C20.1035 15.3158 18.5168 13.7292 16.5618 13.7292C14.6068 13.7292 13.0202 15.3158 13.0202 17.2708Z" fill="black"/>
</svg>
